%TF.GenerationSoftware,KiCad,Pcbnew,9.0.7*%
%TF.CreationDate,2026-01-21T21:34:25-07:00*%
%TF.ProjectId,WolfPCB,576f6c66-5043-4422-9e6b-696361645f70,1*%
%TF.SameCoordinates,Original*%
%TF.FileFunction,Legend,Bot*%
%TF.FilePolarity,Positive*%
%FSLAX46Y46*%
G04 Gerber Fmt 4.6, Leading zero omitted, Abs format (unit mm)*
G04 Created by KiCad (PCBNEW 9.0.7) date 2026-01-21 21:34:25*
%MOMM*%
%LPD*%
G01*
G04 APERTURE LIST*
%ADD10C,0.100000*%
%ADD11C,0.150000*%
%ADD12C,0.010000*%
%ADD13C,0.127000*%
G04 APERTURE END LIST*
D10*
X163257142Y-75229721D02*
X163590475Y-75229721D01*
X163590475Y-75753531D02*
X163590475Y-74753531D01*
X163590475Y-74753531D02*
X163114285Y-74753531D01*
X162161904Y-75753531D02*
X162495237Y-75277340D01*
X162733332Y-75753531D02*
X162733332Y-74753531D01*
X162733332Y-74753531D02*
X162352380Y-74753531D01*
X162352380Y-74753531D02*
X162257142Y-74801150D01*
X162257142Y-74801150D02*
X162209523Y-74848769D01*
X162209523Y-74848769D02*
X162161904Y-74944007D01*
X162161904Y-74944007D02*
X162161904Y-75086864D01*
X162161904Y-75086864D02*
X162209523Y-75182102D01*
X162209523Y-75182102D02*
X162257142Y-75229721D01*
X162257142Y-75229721D02*
X162352380Y-75277340D01*
X162352380Y-75277340D02*
X162733332Y-75277340D01*
X161161904Y-75658292D02*
X161209523Y-75705912D01*
X161209523Y-75705912D02*
X161352380Y-75753531D01*
X161352380Y-75753531D02*
X161447618Y-75753531D01*
X161447618Y-75753531D02*
X161590475Y-75705912D01*
X161590475Y-75705912D02*
X161685713Y-75610673D01*
X161685713Y-75610673D02*
X161733332Y-75515435D01*
X161733332Y-75515435D02*
X161780951Y-75324959D01*
X161780951Y-75324959D02*
X161780951Y-75182102D01*
X161780951Y-75182102D02*
X161733332Y-74991626D01*
X161733332Y-74991626D02*
X161685713Y-74896388D01*
X161685713Y-74896388D02*
X161590475Y-74801150D01*
X161590475Y-74801150D02*
X161447618Y-74753531D01*
X161447618Y-74753531D02*
X161352380Y-74753531D01*
X161352380Y-74753531D02*
X161209523Y-74801150D01*
X161209523Y-74801150D02*
X161161904Y-74848769D01*
X160161904Y-75658292D02*
X160209523Y-75705912D01*
X160209523Y-75705912D02*
X160352380Y-75753531D01*
X160352380Y-75753531D02*
X160447618Y-75753531D01*
X160447618Y-75753531D02*
X160590475Y-75705912D01*
X160590475Y-75705912D02*
X160685713Y-75610673D01*
X160685713Y-75610673D02*
X160733332Y-75515435D01*
X160733332Y-75515435D02*
X160780951Y-75324959D01*
X160780951Y-75324959D02*
X160780951Y-75182102D01*
X160780951Y-75182102D02*
X160733332Y-74991626D01*
X160733332Y-74991626D02*
X160685713Y-74896388D01*
X160685713Y-74896388D02*
X160590475Y-74801150D01*
X160590475Y-74801150D02*
X160447618Y-74753531D01*
X160447618Y-74753531D02*
X160352380Y-74753531D01*
X160352380Y-74753531D02*
X160209523Y-74801150D01*
X160209523Y-74801150D02*
X160161904Y-74848769D01*
X166019047Y-76839665D02*
X165685714Y-76839665D01*
X165542857Y-77363475D02*
X166019047Y-77363475D01*
X166019047Y-77363475D02*
X166019047Y-76363475D01*
X166019047Y-76363475D02*
X165542857Y-76363475D01*
X165114285Y-76696808D02*
X165114285Y-77363475D01*
X165114285Y-76792046D02*
X165066666Y-76744427D01*
X165066666Y-76744427D02*
X164971428Y-76696808D01*
X164971428Y-76696808D02*
X164828571Y-76696808D01*
X164828571Y-76696808D02*
X164733333Y-76744427D01*
X164733333Y-76744427D02*
X164685714Y-76839665D01*
X164685714Y-76839665D02*
X164685714Y-77363475D01*
X163780952Y-76696808D02*
X163780952Y-77506332D01*
X163780952Y-77506332D02*
X163828571Y-77601570D01*
X163828571Y-77601570D02*
X163876190Y-77649189D01*
X163876190Y-77649189D02*
X163971428Y-77696808D01*
X163971428Y-77696808D02*
X164114285Y-77696808D01*
X164114285Y-77696808D02*
X164209523Y-77649189D01*
X163780952Y-77315856D02*
X163876190Y-77363475D01*
X163876190Y-77363475D02*
X164066666Y-77363475D01*
X164066666Y-77363475D02*
X164161904Y-77315856D01*
X164161904Y-77315856D02*
X164209523Y-77268236D01*
X164209523Y-77268236D02*
X164257142Y-77172998D01*
X164257142Y-77172998D02*
X164257142Y-76887284D01*
X164257142Y-76887284D02*
X164209523Y-76792046D01*
X164209523Y-76792046D02*
X164161904Y-76744427D01*
X164161904Y-76744427D02*
X164066666Y-76696808D01*
X164066666Y-76696808D02*
X163876190Y-76696808D01*
X163876190Y-76696808D02*
X163780952Y-76744427D01*
X163304761Y-77363475D02*
X163304761Y-76696808D01*
X163304761Y-76363475D02*
X163352380Y-76411094D01*
X163352380Y-76411094D02*
X163304761Y-76458713D01*
X163304761Y-76458713D02*
X163257142Y-76411094D01*
X163257142Y-76411094D02*
X163304761Y-76363475D01*
X163304761Y-76363475D02*
X163304761Y-76458713D01*
X162828571Y-76696808D02*
X162828571Y-77363475D01*
X162828571Y-76792046D02*
X162780952Y-76744427D01*
X162780952Y-76744427D02*
X162685714Y-76696808D01*
X162685714Y-76696808D02*
X162542857Y-76696808D01*
X162542857Y-76696808D02*
X162447619Y-76744427D01*
X162447619Y-76744427D02*
X162400000Y-76839665D01*
X162400000Y-76839665D02*
X162400000Y-77363475D01*
X161542857Y-77315856D02*
X161638095Y-77363475D01*
X161638095Y-77363475D02*
X161828571Y-77363475D01*
X161828571Y-77363475D02*
X161923809Y-77315856D01*
X161923809Y-77315856D02*
X161971428Y-77220617D01*
X161971428Y-77220617D02*
X161971428Y-76839665D01*
X161971428Y-76839665D02*
X161923809Y-76744427D01*
X161923809Y-76744427D02*
X161828571Y-76696808D01*
X161828571Y-76696808D02*
X161638095Y-76696808D01*
X161638095Y-76696808D02*
X161542857Y-76744427D01*
X161542857Y-76744427D02*
X161495238Y-76839665D01*
X161495238Y-76839665D02*
X161495238Y-76934903D01*
X161495238Y-76934903D02*
X161971428Y-77030141D01*
X160685714Y-77315856D02*
X160780952Y-77363475D01*
X160780952Y-77363475D02*
X160971428Y-77363475D01*
X160971428Y-77363475D02*
X161066666Y-77315856D01*
X161066666Y-77315856D02*
X161114285Y-77220617D01*
X161114285Y-77220617D02*
X161114285Y-76839665D01*
X161114285Y-76839665D02*
X161066666Y-76744427D01*
X161066666Y-76744427D02*
X160971428Y-76696808D01*
X160971428Y-76696808D02*
X160780952Y-76696808D01*
X160780952Y-76696808D02*
X160685714Y-76744427D01*
X160685714Y-76744427D02*
X160638095Y-76839665D01*
X160638095Y-76839665D02*
X160638095Y-76934903D01*
X160638095Y-76934903D02*
X161114285Y-77030141D01*
X160209523Y-77363475D02*
X160209523Y-76696808D01*
X160209523Y-76887284D02*
X160161904Y-76792046D01*
X160161904Y-76792046D02*
X160114285Y-76744427D01*
X160114285Y-76744427D02*
X160019047Y-76696808D01*
X160019047Y-76696808D02*
X159923809Y-76696808D01*
X159590475Y-77363475D02*
X159590475Y-76696808D01*
X159590475Y-76363475D02*
X159638094Y-76411094D01*
X159638094Y-76411094D02*
X159590475Y-76458713D01*
X159590475Y-76458713D02*
X159542856Y-76411094D01*
X159542856Y-76411094D02*
X159590475Y-76363475D01*
X159590475Y-76363475D02*
X159590475Y-76458713D01*
X159114285Y-76696808D02*
X159114285Y-77363475D01*
X159114285Y-76792046D02*
X159066666Y-76744427D01*
X159066666Y-76744427D02*
X158971428Y-76696808D01*
X158971428Y-76696808D02*
X158828571Y-76696808D01*
X158828571Y-76696808D02*
X158733333Y-76744427D01*
X158733333Y-76744427D02*
X158685714Y-76839665D01*
X158685714Y-76839665D02*
X158685714Y-77363475D01*
X157780952Y-76696808D02*
X157780952Y-77506332D01*
X157780952Y-77506332D02*
X157828571Y-77601570D01*
X157828571Y-77601570D02*
X157876190Y-77649189D01*
X157876190Y-77649189D02*
X157971428Y-77696808D01*
X157971428Y-77696808D02*
X158114285Y-77696808D01*
X158114285Y-77696808D02*
X158209523Y-77649189D01*
X157780952Y-77315856D02*
X157876190Y-77363475D01*
X157876190Y-77363475D02*
X158066666Y-77363475D01*
X158066666Y-77363475D02*
X158161904Y-77315856D01*
X158161904Y-77315856D02*
X158209523Y-77268236D01*
X158209523Y-77268236D02*
X158257142Y-77172998D01*
X158257142Y-77172998D02*
X158257142Y-76887284D01*
X158257142Y-76887284D02*
X158209523Y-76792046D01*
X158209523Y-76792046D02*
X158161904Y-76744427D01*
X158161904Y-76744427D02*
X158066666Y-76696808D01*
X158066666Y-76696808D02*
X157876190Y-76696808D01*
X157876190Y-76696808D02*
X157780952Y-76744427D01*
X162757143Y-78878180D02*
X162804762Y-78925800D01*
X162804762Y-78925800D02*
X162947619Y-78973419D01*
X162947619Y-78973419D02*
X163042857Y-78973419D01*
X163042857Y-78973419D02*
X163185714Y-78925800D01*
X163185714Y-78925800D02*
X163280952Y-78830561D01*
X163280952Y-78830561D02*
X163328571Y-78735323D01*
X163328571Y-78735323D02*
X163376190Y-78544847D01*
X163376190Y-78544847D02*
X163376190Y-78401990D01*
X163376190Y-78401990D02*
X163328571Y-78211514D01*
X163328571Y-78211514D02*
X163280952Y-78116276D01*
X163280952Y-78116276D02*
X163185714Y-78021038D01*
X163185714Y-78021038D02*
X163042857Y-77973419D01*
X163042857Y-77973419D02*
X162947619Y-77973419D01*
X162947619Y-77973419D02*
X162804762Y-78021038D01*
X162804762Y-78021038D02*
X162757143Y-78068657D01*
X162185714Y-78973419D02*
X162280952Y-78925800D01*
X162280952Y-78925800D02*
X162328571Y-78830561D01*
X162328571Y-78830561D02*
X162328571Y-77973419D01*
X161376190Y-78306752D02*
X161376190Y-78973419D01*
X161804761Y-78306752D02*
X161804761Y-78830561D01*
X161804761Y-78830561D02*
X161757142Y-78925800D01*
X161757142Y-78925800D02*
X161661904Y-78973419D01*
X161661904Y-78973419D02*
X161519047Y-78973419D01*
X161519047Y-78973419D02*
X161423809Y-78925800D01*
X161423809Y-78925800D02*
X161376190Y-78878180D01*
X160899999Y-78973419D02*
X160899999Y-77973419D01*
X160899999Y-78354371D02*
X160804761Y-78306752D01*
X160804761Y-78306752D02*
X160614285Y-78306752D01*
X160614285Y-78306752D02*
X160519047Y-78354371D01*
X160519047Y-78354371D02*
X160471428Y-78401990D01*
X160471428Y-78401990D02*
X160423809Y-78497228D01*
X160423809Y-78497228D02*
X160423809Y-78782942D01*
X160423809Y-78782942D02*
X160471428Y-78878180D01*
X160471428Y-78878180D02*
X160519047Y-78925800D01*
X160519047Y-78925800D02*
X160614285Y-78973419D01*
X160614285Y-78973419D02*
X160804761Y-78973419D01*
X160804761Y-78973419D02*
X160899999Y-78925800D01*
X151824687Y-132873419D02*
X152158020Y-132397228D01*
X152396115Y-132873419D02*
X152396115Y-131873419D01*
X152396115Y-131873419D02*
X152015163Y-131873419D01*
X152015163Y-131873419D02*
X151919925Y-131921038D01*
X151919925Y-131921038D02*
X151872306Y-131968657D01*
X151872306Y-131968657D02*
X151824687Y-132063895D01*
X151824687Y-132063895D02*
X151824687Y-132206752D01*
X151824687Y-132206752D02*
X151872306Y-132301990D01*
X151872306Y-132301990D02*
X151919925Y-132349609D01*
X151919925Y-132349609D02*
X152015163Y-132397228D01*
X152015163Y-132397228D02*
X152396115Y-132397228D01*
X151015163Y-132825800D02*
X151110401Y-132873419D01*
X151110401Y-132873419D02*
X151300877Y-132873419D01*
X151300877Y-132873419D02*
X151396115Y-132825800D01*
X151396115Y-132825800D02*
X151443734Y-132730561D01*
X151443734Y-132730561D02*
X151443734Y-132349609D01*
X151443734Y-132349609D02*
X151396115Y-132254371D01*
X151396115Y-132254371D02*
X151300877Y-132206752D01*
X151300877Y-132206752D02*
X151110401Y-132206752D01*
X151110401Y-132206752D02*
X151015163Y-132254371D01*
X151015163Y-132254371D02*
X150967544Y-132349609D01*
X150967544Y-132349609D02*
X150967544Y-132444847D01*
X150967544Y-132444847D02*
X151443734Y-132540085D01*
X150634210Y-132206752D02*
X150396115Y-132873419D01*
X150396115Y-132873419D02*
X150158020Y-132206752D01*
X148491353Y-132873419D02*
X149062781Y-132873419D01*
X148777067Y-132873419D02*
X148777067Y-131873419D01*
X148777067Y-131873419D02*
X148872305Y-132016276D01*
X148872305Y-132016276D02*
X148967543Y-132111514D01*
X148967543Y-132111514D02*
X149062781Y-132159133D01*
D11*
X159133666Y-87957200D02*
X159066999Y-87890533D01*
X159066999Y-87890533D02*
X158933666Y-87823866D01*
X158933666Y-87823866D02*
X158600333Y-87823866D01*
X158600333Y-87823866D02*
X158466999Y-87890533D01*
X158466999Y-87890533D02*
X158400333Y-87957200D01*
X158400333Y-87957200D02*
X158333666Y-88090533D01*
X158333666Y-88090533D02*
X158333666Y-88223866D01*
X158333666Y-88223866D02*
X158400333Y-88423866D01*
X158400333Y-88423866D02*
X159200333Y-89223866D01*
X159200333Y-89223866D02*
X158333666Y-89223866D01*
X157467000Y-87823866D02*
X157333666Y-87823866D01*
X157333666Y-87823866D02*
X157200333Y-87890533D01*
X157200333Y-87890533D02*
X157133666Y-87957200D01*
X157133666Y-87957200D02*
X157067000Y-88090533D01*
X157067000Y-88090533D02*
X157000333Y-88357200D01*
X157000333Y-88357200D02*
X157000333Y-88690533D01*
X157000333Y-88690533D02*
X157067000Y-88957200D01*
X157067000Y-88957200D02*
X157133666Y-89090533D01*
X157133666Y-89090533D02*
X157200333Y-89157200D01*
X157200333Y-89157200D02*
X157333666Y-89223866D01*
X157333666Y-89223866D02*
X157467000Y-89223866D01*
X157467000Y-89223866D02*
X157600333Y-89157200D01*
X157600333Y-89157200D02*
X157667000Y-89090533D01*
X157667000Y-89090533D02*
X157733666Y-88957200D01*
X157733666Y-88957200D02*
X157800333Y-88690533D01*
X157800333Y-88690533D02*
X157800333Y-88357200D01*
X157800333Y-88357200D02*
X157733666Y-88090533D01*
X157733666Y-88090533D02*
X157667000Y-87957200D01*
X157667000Y-87957200D02*
X157600333Y-87890533D01*
X157600333Y-87890533D02*
X157467000Y-87823866D01*
X156533667Y-87823866D02*
X155667000Y-87823866D01*
X155667000Y-87823866D02*
X156133667Y-88357200D01*
X156133667Y-88357200D02*
X155933667Y-88357200D01*
X155933667Y-88357200D02*
X155800333Y-88423866D01*
X155800333Y-88423866D02*
X155733667Y-88490533D01*
X155733667Y-88490533D02*
X155667000Y-88623866D01*
X155667000Y-88623866D02*
X155667000Y-88957200D01*
X155667000Y-88957200D02*
X155733667Y-89090533D01*
X155733667Y-89090533D02*
X155800333Y-89157200D01*
X155800333Y-89157200D02*
X155933667Y-89223866D01*
X155933667Y-89223866D02*
X156333667Y-89223866D01*
X156333667Y-89223866D02*
X156467000Y-89157200D01*
X156467000Y-89157200D02*
X156533667Y-89090533D01*
X155133667Y-87957200D02*
X155067000Y-87890533D01*
X155067000Y-87890533D02*
X154933667Y-87823866D01*
X154933667Y-87823866D02*
X154600334Y-87823866D01*
X154600334Y-87823866D02*
X154467000Y-87890533D01*
X154467000Y-87890533D02*
X154400334Y-87957200D01*
X154400334Y-87957200D02*
X154333667Y-88090533D01*
X154333667Y-88090533D02*
X154333667Y-88223866D01*
X154333667Y-88223866D02*
X154400334Y-88423866D01*
X154400334Y-88423866D02*
X155200334Y-89223866D01*
X155200334Y-89223866D02*
X154333667Y-89223866D01*
X152200334Y-88490533D02*
X152000334Y-88557200D01*
X152000334Y-88557200D02*
X151933667Y-88623866D01*
X151933667Y-88623866D02*
X151867000Y-88757200D01*
X151867000Y-88757200D02*
X151867000Y-88957200D01*
X151867000Y-88957200D02*
X151933667Y-89090533D01*
X151933667Y-89090533D02*
X152000334Y-89157200D01*
X152000334Y-89157200D02*
X152133667Y-89223866D01*
X152133667Y-89223866D02*
X152667000Y-89223866D01*
X152667000Y-89223866D02*
X152667000Y-87823866D01*
X152667000Y-87823866D02*
X152200334Y-87823866D01*
X152200334Y-87823866D02*
X152067000Y-87890533D01*
X152067000Y-87890533D02*
X152000334Y-87957200D01*
X152000334Y-87957200D02*
X151933667Y-88090533D01*
X151933667Y-88090533D02*
X151933667Y-88223866D01*
X151933667Y-88223866D02*
X152000334Y-88357200D01*
X152000334Y-88357200D02*
X152067000Y-88423866D01*
X152067000Y-88423866D02*
X152200334Y-88490533D01*
X152200334Y-88490533D02*
X152667000Y-88490533D01*
X151333667Y-88823866D02*
X150667000Y-88823866D01*
X151467000Y-89223866D02*
X151000334Y-87823866D01*
X151000334Y-87823866D02*
X150533667Y-89223866D01*
X150267000Y-87823866D02*
X149467000Y-87823866D01*
X149867000Y-89223866D02*
X149867000Y-87823866D01*
D12*
%TO.C,REF\u002A\u002A*%
X146985406Y-125337949D02*
X147011127Y-125353647D01*
X147037778Y-125375227D01*
X147037778Y-126022684D01*
X147011127Y-126044264D01*
X146979767Y-126061739D01*
X146943966Y-126062575D01*
X146912528Y-126042082D01*
X146908652Y-126037416D01*
X146903186Y-126027949D01*
X146898979Y-126014267D01*
X146895867Y-125993748D01*
X146893687Y-125963768D01*
X146892276Y-125921704D01*
X146891471Y-125864932D01*
X146891107Y-125790830D01*
X146891022Y-125696773D01*
X146891022Y-125375227D01*
X146917673Y-125353647D01*
X146941386Y-125338877D01*
X146964400Y-125332067D01*
X146985406Y-125337949D01*
G36*
X146985406Y-125337949D02*
G01*
X147011127Y-125353647D01*
X147037778Y-125375227D01*
X147037778Y-126022684D01*
X147011127Y-126044264D01*
X146979767Y-126061739D01*
X146943966Y-126062575D01*
X146912528Y-126042082D01*
X146908652Y-126037416D01*
X146903186Y-126027949D01*
X146898979Y-126014267D01*
X146895867Y-125993748D01*
X146893687Y-125963768D01*
X146892276Y-125921704D01*
X146891471Y-125864932D01*
X146891107Y-125790830D01*
X146891022Y-125696773D01*
X146891022Y-125375227D01*
X146917673Y-125353647D01*
X146941386Y-125338877D01*
X146964400Y-125332067D01*
X146985406Y-125337949D01*
G37*
X154116137Y-125336463D02*
X154150291Y-125359776D01*
X154178000Y-125387485D01*
X154178000Y-125700537D01*
X154177959Y-125784567D01*
X154177701Y-125858789D01*
X154177030Y-125915541D01*
X154175752Y-125957512D01*
X154173673Y-125987389D01*
X154170599Y-126007861D01*
X154166334Y-126021614D01*
X154160684Y-126031337D01*
X154153455Y-126039717D01*
X154121991Y-126061181D01*
X154086826Y-126062947D01*
X154053822Y-126043267D01*
X154048516Y-126037398D01*
X154043066Y-126028314D01*
X154038900Y-126014973D01*
X154035846Y-125994757D01*
X154033732Y-125965049D01*
X154032386Y-125923232D01*
X154031638Y-125866689D01*
X154031314Y-125792802D01*
X154031245Y-125698956D01*
X154031284Y-125623294D01*
X154031539Y-125545385D01*
X154032183Y-125485375D01*
X154033387Y-125440648D01*
X154035324Y-125408585D01*
X154038164Y-125386571D01*
X154042079Y-125371987D01*
X154047242Y-125362218D01*
X154053822Y-125354645D01*
X154083006Y-125335623D01*
X154116137Y-125336463D01*
G36*
X154116137Y-125336463D02*
G01*
X154150291Y-125359776D01*
X154178000Y-125387485D01*
X154178000Y-125700537D01*
X154177959Y-125784567D01*
X154177701Y-125858789D01*
X154177030Y-125915541D01*
X154175752Y-125957512D01*
X154173673Y-125987389D01*
X154170599Y-126007861D01*
X154166334Y-126021614D01*
X154160684Y-126031337D01*
X154153455Y-126039717D01*
X154121991Y-126061181D01*
X154086826Y-126062947D01*
X154053822Y-126043267D01*
X154048516Y-126037398D01*
X154043066Y-126028314D01*
X154038900Y-126014973D01*
X154035846Y-125994757D01*
X154033732Y-125965049D01*
X154032386Y-125923232D01*
X154031638Y-125866689D01*
X154031314Y-125792802D01*
X154031245Y-125698956D01*
X154031284Y-125623294D01*
X154031539Y-125545385D01*
X154032183Y-125485375D01*
X154033387Y-125440648D01*
X154035324Y-125408585D01*
X154038164Y-125386571D01*
X154042079Y-125371987D01*
X154047242Y-125362218D01*
X154053822Y-125354645D01*
X154083006Y-125335623D01*
X154116137Y-125336463D01*
G37*
X153584562Y-120095850D02*
X153667313Y-120123053D01*
X153742406Y-120168484D01*
X153814298Y-120234302D01*
X153852846Y-120278567D01*
X153892256Y-120336961D01*
X153917446Y-120397586D01*
X153930861Y-120466865D01*
X153934948Y-120551222D01*
X153934669Y-120597307D01*
X153932460Y-120638450D01*
X153926894Y-120670582D01*
X153916586Y-120701122D01*
X153900148Y-120737489D01*
X153886200Y-120764728D01*
X153827665Y-120850429D01*
X153755619Y-120919617D01*
X153671947Y-120970741D01*
X153578531Y-121002250D01*
X153545434Y-121009225D01*
X153504960Y-121016094D01*
X153471999Y-121017919D01*
X153437698Y-121014947D01*
X153393200Y-121007426D01*
X153341934Y-120995002D01*
X153251434Y-120957112D01*
X153172345Y-120902836D01*
X153106528Y-120834770D01*
X153055840Y-120755511D01*
X153022140Y-120667654D01*
X153007286Y-120573795D01*
X153013136Y-120476530D01*
X153039399Y-120380220D01*
X153084418Y-120291494D01*
X153145373Y-120216419D01*
X153220184Y-120156641D01*
X153306768Y-120113809D01*
X153403043Y-120089571D01*
X153506928Y-120085576D01*
X153584562Y-120095850D01*
G36*
X153584562Y-120095850D02*
G01*
X153667313Y-120123053D01*
X153742406Y-120168484D01*
X153814298Y-120234302D01*
X153852846Y-120278567D01*
X153892256Y-120336961D01*
X153917446Y-120397586D01*
X153930861Y-120466865D01*
X153934948Y-120551222D01*
X153934669Y-120597307D01*
X153932460Y-120638450D01*
X153926894Y-120670582D01*
X153916586Y-120701122D01*
X153900148Y-120737489D01*
X153886200Y-120764728D01*
X153827665Y-120850429D01*
X153755619Y-120919617D01*
X153671947Y-120970741D01*
X153578531Y-121002250D01*
X153545434Y-121009225D01*
X153504960Y-121016094D01*
X153471999Y-121017919D01*
X153437698Y-121014947D01*
X153393200Y-121007426D01*
X153341934Y-120995002D01*
X153251434Y-120957112D01*
X153172345Y-120902836D01*
X153106528Y-120834770D01*
X153055840Y-120755511D01*
X153022140Y-120667654D01*
X153007286Y-120573795D01*
X153013136Y-120476530D01*
X153039399Y-120380220D01*
X153084418Y-120291494D01*
X153145373Y-120216419D01*
X153220184Y-120156641D01*
X153306768Y-120113809D01*
X153403043Y-120089571D01*
X153506928Y-120085576D01*
X153584562Y-120095850D01*
G37*
X146285767Y-125332068D02*
X146379890Y-125332158D01*
X146454405Y-125332498D01*
X146511811Y-125333239D01*
X146554611Y-125334535D01*
X146585304Y-125336537D01*
X146606391Y-125339396D01*
X146620373Y-125343266D01*
X146629750Y-125348298D01*
X146637022Y-125354645D01*
X146655828Y-125387362D01*
X146657275Y-125424939D01*
X146640917Y-125458178D01*
X146639557Y-125459631D01*
X146628354Y-125467992D01*
X146611252Y-125473547D01*
X146584082Y-125476840D01*
X146542678Y-125478418D01*
X146482873Y-125478822D01*
X146343511Y-125478822D01*
X146343511Y-125742589D01*
X146343436Y-125818417D01*
X146343028Y-125885083D01*
X146342046Y-125934867D01*
X146340250Y-125970784D01*
X146337399Y-125995850D01*
X146333253Y-126013081D01*
X146327571Y-126025492D01*
X146320114Y-126036100D01*
X146317824Y-126038906D01*
X146286646Y-126061548D01*
X146252266Y-126063112D01*
X146219334Y-126043267D01*
X146212355Y-126035191D01*
X146206883Y-126024593D01*
X146202863Y-126008749D01*
X146200072Y-125984773D01*
X146198288Y-125949774D01*
X146197289Y-125900864D01*
X146196852Y-125835154D01*
X146196756Y-125749756D01*
X146196756Y-125478822D01*
X146050820Y-125478822D01*
X146039720Y-125478821D01*
X145983202Y-125478596D01*
X145944358Y-125477457D01*
X145918965Y-125474657D01*
X145902804Y-125469450D01*
X145891652Y-125461089D01*
X145881289Y-125448826D01*
X145865441Y-125418138D01*
X145868543Y-125384358D01*
X145894187Y-125351822D01*
X145899129Y-125348105D01*
X145909338Y-125343269D01*
X145924764Y-125339506D01*
X145947886Y-125336683D01*
X145981183Y-125334670D01*
X146027137Y-125333333D01*
X146088228Y-125332542D01*
X146166935Y-125332163D01*
X146265740Y-125332067D01*
X146285767Y-125332068D01*
G36*
X146285767Y-125332068D02*
G01*
X146379890Y-125332158D01*
X146454405Y-125332498D01*
X146511811Y-125333239D01*
X146554611Y-125334535D01*
X146585304Y-125336537D01*
X146606391Y-125339396D01*
X146620373Y-125343266D01*
X146629750Y-125348298D01*
X146637022Y-125354645D01*
X146655828Y-125387362D01*
X146657275Y-125424939D01*
X146640917Y-125458178D01*
X146639557Y-125459631D01*
X146628354Y-125467992D01*
X146611252Y-125473547D01*
X146584082Y-125476840D01*
X146542678Y-125478418D01*
X146482873Y-125478822D01*
X146343511Y-125478822D01*
X146343511Y-125742589D01*
X146343436Y-125818417D01*
X146343028Y-125885083D01*
X146342046Y-125934867D01*
X146340250Y-125970784D01*
X146337399Y-125995850D01*
X146333253Y-126013081D01*
X146327571Y-126025492D01*
X146320114Y-126036100D01*
X146317824Y-126038906D01*
X146286646Y-126061548D01*
X146252266Y-126063112D01*
X146219334Y-126043267D01*
X146212355Y-126035191D01*
X146206883Y-126024593D01*
X146202863Y-126008749D01*
X146200072Y-125984773D01*
X146198288Y-125949774D01*
X146197289Y-125900864D01*
X146196852Y-125835154D01*
X146196756Y-125749756D01*
X146196756Y-125478822D01*
X146050820Y-125478822D01*
X146039720Y-125478821D01*
X145983202Y-125478596D01*
X145944358Y-125477457D01*
X145918965Y-125474657D01*
X145902804Y-125469450D01*
X145891652Y-125461089D01*
X145881289Y-125448826D01*
X145865441Y-125418138D01*
X145868543Y-125384358D01*
X145894187Y-125351822D01*
X145899129Y-125348105D01*
X145909338Y-125343269D01*
X145924764Y-125339506D01*
X145947886Y-125336683D01*
X145981183Y-125334670D01*
X146027137Y-125333333D01*
X146088228Y-125332542D01*
X146166935Y-125332163D01*
X146265740Y-125332067D01*
X146285767Y-125332068D01*
G37*
X145609734Y-125354645D02*
X145615366Y-125360835D01*
X145620456Y-125369041D01*
X145624543Y-125380817D01*
X145627721Y-125398276D01*
X145630087Y-125423530D01*
X145631738Y-125458690D01*
X145632769Y-125505869D01*
X145633277Y-125567177D01*
X145633359Y-125644727D01*
X145633109Y-125740631D01*
X145632625Y-125857000D01*
X145632557Y-125871175D01*
X145631971Y-125932937D01*
X145630648Y-125976620D01*
X145628103Y-126006001D01*
X145623848Y-126024855D01*
X145617396Y-126036959D01*
X145608262Y-126046089D01*
X145574804Y-126063506D01*
X145539856Y-126060604D01*
X145508953Y-126036100D01*
X145499944Y-126022897D01*
X145492492Y-126004361D01*
X145488124Y-125978333D01*
X145486069Y-125939787D01*
X145485556Y-125883700D01*
X145485556Y-125761045D01*
X144988845Y-125761045D01*
X144988845Y-125895871D01*
X144988772Y-125931662D01*
X144988009Y-125977992D01*
X144985833Y-126008526D01*
X144981536Y-126027557D01*
X144974412Y-126039374D01*
X144963755Y-126048271D01*
X144931504Y-126063341D01*
X144896217Y-126060673D01*
X144865486Y-126036100D01*
X144860831Y-126029845D01*
X144854895Y-126019321D01*
X144850364Y-126005391D01*
X144847048Y-125985317D01*
X144844759Y-125956360D01*
X144843308Y-125915780D01*
X144842505Y-125860840D01*
X144842162Y-125788799D01*
X144842089Y-125696920D01*
X144842089Y-125387485D01*
X144869798Y-125359776D01*
X144901177Y-125337533D01*
X144934406Y-125334844D01*
X144966267Y-125354645D01*
X144974553Y-125364415D01*
X144981965Y-125380307D01*
X144986302Y-125404275D01*
X144988338Y-125441148D01*
X144988845Y-125495756D01*
X144988845Y-125614289D01*
X145485556Y-125614289D01*
X145485556Y-125498776D01*
X145485994Y-125447078D01*
X145487958Y-125412554D01*
X145492474Y-125389978D01*
X145500567Y-125374126D01*
X145513265Y-125359776D01*
X145544643Y-125337533D01*
X145577872Y-125334844D01*
X145609734Y-125354645D01*
G36*
X145609734Y-125354645D02*
G01*
X145615366Y-125360835D01*
X145620456Y-125369041D01*
X145624543Y-125380817D01*
X145627721Y-125398276D01*
X145630087Y-125423530D01*
X145631738Y-125458690D01*
X145632769Y-125505869D01*
X145633277Y-125567177D01*
X145633359Y-125644727D01*
X145633109Y-125740631D01*
X145632625Y-125857000D01*
X145632557Y-125871175D01*
X145631971Y-125932937D01*
X145630648Y-125976620D01*
X145628103Y-126006001D01*
X145623848Y-126024855D01*
X145617396Y-126036959D01*
X145608262Y-126046089D01*
X145574804Y-126063506D01*
X145539856Y-126060604D01*
X145508953Y-126036100D01*
X145499944Y-126022897D01*
X145492492Y-126004361D01*
X145488124Y-125978333D01*
X145486069Y-125939787D01*
X145485556Y-125883700D01*
X145485556Y-125761045D01*
X144988845Y-125761045D01*
X144988845Y-125895871D01*
X144988772Y-125931662D01*
X144988009Y-125977992D01*
X144985833Y-126008526D01*
X144981536Y-126027557D01*
X144974412Y-126039374D01*
X144963755Y-126048271D01*
X144931504Y-126063341D01*
X144896217Y-126060673D01*
X144865486Y-126036100D01*
X144860831Y-126029845D01*
X144854895Y-126019321D01*
X144850364Y-126005391D01*
X144847048Y-125985317D01*
X144844759Y-125956360D01*
X144843308Y-125915780D01*
X144842505Y-125860840D01*
X144842162Y-125788799D01*
X144842089Y-125696920D01*
X144842089Y-125387485D01*
X144869798Y-125359776D01*
X144901177Y-125337533D01*
X144934406Y-125334844D01*
X144966267Y-125354645D01*
X144974553Y-125364415D01*
X144981965Y-125380307D01*
X144986302Y-125404275D01*
X144988338Y-125441148D01*
X144988845Y-125495756D01*
X144988845Y-125614289D01*
X145485556Y-125614289D01*
X145485556Y-125498776D01*
X145485994Y-125447078D01*
X145487958Y-125412554D01*
X145492474Y-125389978D01*
X145500567Y-125374126D01*
X145513265Y-125359776D01*
X145544643Y-125337533D01*
X145577872Y-125334844D01*
X145609734Y-125354645D01*
G37*
X150315133Y-125943396D02*
X150313163Y-125976175D01*
X150310235Y-125999095D01*
X150306158Y-126014897D01*
X150300743Y-126026319D01*
X150293803Y-126036100D01*
X150270406Y-126065845D01*
X150104714Y-126065251D01*
X150069918Y-126064953D01*
X149971435Y-126061522D01*
X149890473Y-126053839D01*
X149823379Y-126041282D01*
X149766496Y-126023227D01*
X149716169Y-125999052D01*
X149712810Y-125997135D01*
X149654998Y-125960417D01*
X149612644Y-125923451D01*
X149579828Y-125879966D01*
X149550628Y-125823689D01*
X149546346Y-125814073D01*
X149523769Y-125750887D01*
X149518034Y-125705333D01*
X149667279Y-125705333D01*
X149672892Y-125730061D01*
X149678618Y-125745939D01*
X149711548Y-125805847D01*
X149758886Y-125851600D01*
X149822652Y-125884736D01*
X149904861Y-125906790D01*
X149907655Y-125907292D01*
X149953940Y-125913255D01*
X150010336Y-125917483D01*
X150065274Y-125919089D01*
X150159156Y-125919089D01*
X150159156Y-125478822D01*
X150071667Y-125479270D01*
X150004747Y-125481746D01*
X149912349Y-125492998D01*
X149833034Y-125512537D01*
X149771060Y-125539511D01*
X149740120Y-125560240D01*
X149712000Y-125590006D01*
X149688660Y-125632434D01*
X149681533Y-125648400D01*
X149669709Y-125680902D01*
X149667279Y-125705333D01*
X149518034Y-125705333D01*
X149516797Y-125695509D01*
X149525399Y-125640483D01*
X149549541Y-125578351D01*
X149550337Y-125576658D01*
X149590788Y-125507236D01*
X149641473Y-125450638D01*
X149704198Y-125406070D01*
X149780774Y-125372741D01*
X149873009Y-125349861D01*
X149982712Y-125336636D01*
X150111691Y-125332275D01*
X150115263Y-125332270D01*
X150175283Y-125332410D01*
X150217214Y-125333446D01*
X150245328Y-125336040D01*
X150263897Y-125340853D01*
X150277194Y-125348544D01*
X150289491Y-125359776D01*
X150317200Y-125387485D01*
X150317200Y-125696920D01*
X150317175Y-125758526D01*
X150316950Y-125837311D01*
X150316332Y-125898021D01*
X150315775Y-125919089D01*
X150315133Y-125943396D01*
G36*
X150315133Y-125943396D02*
G01*
X150313163Y-125976175D01*
X150310235Y-125999095D01*
X150306158Y-126014897D01*
X150300743Y-126026319D01*
X150293803Y-126036100D01*
X150270406Y-126065845D01*
X150104714Y-126065251D01*
X150069918Y-126064953D01*
X149971435Y-126061522D01*
X149890473Y-126053839D01*
X149823379Y-126041282D01*
X149766496Y-126023227D01*
X149716169Y-125999052D01*
X149712810Y-125997135D01*
X149654998Y-125960417D01*
X149612644Y-125923451D01*
X149579828Y-125879966D01*
X149550628Y-125823689D01*
X149546346Y-125814073D01*
X149523769Y-125750887D01*
X149518034Y-125705333D01*
X149667279Y-125705333D01*
X149672892Y-125730061D01*
X149678618Y-125745939D01*
X149711548Y-125805847D01*
X149758886Y-125851600D01*
X149822652Y-125884736D01*
X149904861Y-125906790D01*
X149907655Y-125907292D01*
X149953940Y-125913255D01*
X150010336Y-125917483D01*
X150065274Y-125919089D01*
X150159156Y-125919089D01*
X150159156Y-125478822D01*
X150071667Y-125479270D01*
X150004747Y-125481746D01*
X149912349Y-125492998D01*
X149833034Y-125512537D01*
X149771060Y-125539511D01*
X149740120Y-125560240D01*
X149712000Y-125590006D01*
X149688660Y-125632434D01*
X149681533Y-125648400D01*
X149669709Y-125680902D01*
X149667279Y-125705333D01*
X149518034Y-125705333D01*
X149516797Y-125695509D01*
X149525399Y-125640483D01*
X149549541Y-125578351D01*
X149550337Y-125576658D01*
X149590788Y-125507236D01*
X149641473Y-125450638D01*
X149704198Y-125406070D01*
X149780774Y-125372741D01*
X149873009Y-125349861D01*
X149982712Y-125336636D01*
X150111691Y-125332275D01*
X150115263Y-125332270D01*
X150175283Y-125332410D01*
X150217214Y-125333446D01*
X150245328Y-125336040D01*
X150263897Y-125340853D01*
X150277194Y-125348544D01*
X150289491Y-125359776D01*
X150317200Y-125387485D01*
X150317200Y-125696920D01*
X150317175Y-125758526D01*
X150316950Y-125837311D01*
X150316332Y-125898021D01*
X150315775Y-125919089D01*
X150315133Y-125943396D01*
G37*
X157406817Y-125517427D02*
X157406870Y-125598041D01*
X157406622Y-125698956D01*
X157406583Y-125774617D01*
X157406328Y-125852526D01*
X157405684Y-125912536D01*
X157404480Y-125957264D01*
X157402543Y-125989326D01*
X157399703Y-126011340D01*
X157395788Y-126025924D01*
X157390626Y-126035694D01*
X157384045Y-126043267D01*
X157377077Y-126049501D01*
X157364079Y-126056801D01*
X157344931Y-126061554D01*
X157315528Y-126064292D01*
X157271762Y-126065545D01*
X157209528Y-126065845D01*
X157160582Y-126065469D01*
X157053722Y-126061041D01*
X156964494Y-126050953D01*
X156889696Y-126034365D01*
X156826125Y-126010435D01*
X156770579Y-125978321D01*
X156719854Y-125937182D01*
X156713866Y-125931330D01*
X156676999Y-125882821D01*
X156645899Y-125822013D01*
X156624417Y-125757769D01*
X156619136Y-125719026D01*
X156766353Y-125719026D01*
X156784635Y-125769961D01*
X156814305Y-125815878D01*
X156861002Y-125858287D01*
X156922392Y-125888090D01*
X157001538Y-125907226D01*
X157003028Y-125907464D01*
X157051999Y-125913256D01*
X157110693Y-125917396D01*
X157166734Y-125919004D01*
X157259867Y-125919089D01*
X157259867Y-125478822D01*
X157183667Y-125478808D01*
X157180639Y-125478817D01*
X157129519Y-125480782D01*
X157069416Y-125485507D01*
X157012708Y-125492035D01*
X156962750Y-125501331D01*
X156887998Y-125527600D01*
X156830489Y-125566899D01*
X156788988Y-125619933D01*
X156767771Y-125671200D01*
X156766353Y-125719026D01*
X156619136Y-125719026D01*
X156616400Y-125698956D01*
X156617679Y-125677739D01*
X156629991Y-125620323D01*
X156652520Y-125560413D01*
X156681750Y-125506363D01*
X156714167Y-125466532D01*
X156733708Y-125449510D01*
X156788420Y-125410322D01*
X156848723Y-125380193D01*
X156917919Y-125358232D01*
X156999311Y-125343550D01*
X157096200Y-125335259D01*
X157211889Y-125332467D01*
X157251371Y-125332066D01*
X157297082Y-125331653D01*
X157332883Y-125333457D01*
X157359974Y-125339739D01*
X157379556Y-125352759D01*
X157392830Y-125374778D01*
X157400998Y-125408055D01*
X157405260Y-125454851D01*
X157405857Y-125478822D01*
X157406817Y-125517427D01*
G36*
X157406817Y-125517427D02*
G01*
X157406870Y-125598041D01*
X157406622Y-125698956D01*
X157406583Y-125774617D01*
X157406328Y-125852526D01*
X157405684Y-125912536D01*
X157404480Y-125957264D01*
X157402543Y-125989326D01*
X157399703Y-126011340D01*
X157395788Y-126025924D01*
X157390626Y-126035694D01*
X157384045Y-126043267D01*
X157377077Y-126049501D01*
X157364079Y-126056801D01*
X157344931Y-126061554D01*
X157315528Y-126064292D01*
X157271762Y-126065545D01*
X157209528Y-126065845D01*
X157160582Y-126065469D01*
X157053722Y-126061041D01*
X156964494Y-126050953D01*
X156889696Y-126034365D01*
X156826125Y-126010435D01*
X156770579Y-125978321D01*
X156719854Y-125937182D01*
X156713866Y-125931330D01*
X156676999Y-125882821D01*
X156645899Y-125822013D01*
X156624417Y-125757769D01*
X156619136Y-125719026D01*
X156766353Y-125719026D01*
X156784635Y-125769961D01*
X156814305Y-125815878D01*
X156861002Y-125858287D01*
X156922392Y-125888090D01*
X157001538Y-125907226D01*
X157003028Y-125907464D01*
X157051999Y-125913256D01*
X157110693Y-125917396D01*
X157166734Y-125919004D01*
X157259867Y-125919089D01*
X157259867Y-125478822D01*
X157183667Y-125478808D01*
X157180639Y-125478817D01*
X157129519Y-125480782D01*
X157069416Y-125485507D01*
X157012708Y-125492035D01*
X156962750Y-125501331D01*
X156887998Y-125527600D01*
X156830489Y-125566899D01*
X156788988Y-125619933D01*
X156767771Y-125671200D01*
X156766353Y-125719026D01*
X156619136Y-125719026D01*
X156616400Y-125698956D01*
X156617679Y-125677739D01*
X156629991Y-125620323D01*
X156652520Y-125560413D01*
X156681750Y-125506363D01*
X156714167Y-125466532D01*
X156733708Y-125449510D01*
X156788420Y-125410322D01*
X156848723Y-125380193D01*
X156917919Y-125358232D01*
X156999311Y-125343550D01*
X157096200Y-125335259D01*
X157211889Y-125332467D01*
X157251371Y-125332066D01*
X157297082Y-125331653D01*
X157332883Y-125333457D01*
X157359974Y-125339739D01*
X157379556Y-125352759D01*
X157392830Y-125374778D01*
X157400998Y-125408055D01*
X157405260Y-125454851D01*
X157405857Y-125478822D01*
X157406817Y-125517427D01*
G37*
X152461893Y-125330892D02*
X152473301Y-125337029D01*
X152483850Y-125347691D01*
X152495136Y-125361811D01*
X152499589Y-125367772D01*
X152505588Y-125378268D01*
X152510167Y-125392093D01*
X152513519Y-125411998D01*
X152515833Y-125440732D01*
X152517301Y-125481045D01*
X152518113Y-125535687D01*
X152518460Y-125607407D01*
X152518534Y-125698956D01*
X152518511Y-125757486D01*
X152518292Y-125836573D01*
X152517683Y-125897516D01*
X152516492Y-125943062D01*
X152514529Y-125975963D01*
X152511603Y-125998968D01*
X152507523Y-126014826D01*
X152502097Y-126026286D01*
X152495136Y-126036100D01*
X152464708Y-126060493D01*
X152429765Y-126063372D01*
X152392784Y-126044282D01*
X152388600Y-126040807D01*
X152380424Y-126032279D01*
X152374364Y-126020728D01*
X152369981Y-126002896D01*
X152366839Y-125975524D01*
X152364502Y-125935354D01*
X152362531Y-125879128D01*
X152360489Y-125803589D01*
X152354845Y-125584458D01*
X152089556Y-125825099D01*
X152015722Y-125891875D01*
X151950542Y-125949991D01*
X151898348Y-125994949D01*
X151857273Y-126027871D01*
X151825455Y-126049879D01*
X151801026Y-126062094D01*
X151782124Y-126065639D01*
X151766883Y-126061636D01*
X151753439Y-126051207D01*
X151739927Y-126035474D01*
X151733682Y-126026991D01*
X151728050Y-126016413D01*
X151723839Y-126002255D01*
X151720887Y-125981803D01*
X151719032Y-125952342D01*
X151718113Y-125911161D01*
X151717968Y-125855544D01*
X151718435Y-125782779D01*
X151719352Y-125690151D01*
X151722667Y-125375199D01*
X151749318Y-125353633D01*
X151775383Y-125337441D01*
X151808241Y-125334670D01*
X151842772Y-125353623D01*
X151847084Y-125357208D01*
X151855216Y-125365737D01*
X151861245Y-125377329D01*
X151865606Y-125395235D01*
X151868734Y-125422706D01*
X151871063Y-125462994D01*
X151873029Y-125519351D01*
X151875067Y-125595029D01*
X151880711Y-125814878D01*
X152061334Y-125651084D01*
X152148072Y-125572451D01*
X152223843Y-125504058D01*
X152285980Y-125448708D01*
X152336078Y-125405338D01*
X152375735Y-125372881D01*
X152406548Y-125350273D01*
X152430114Y-125336448D01*
X152448030Y-125330343D01*
X152461893Y-125330892D01*
G36*
X152461893Y-125330892D02*
G01*
X152473301Y-125337029D01*
X152483850Y-125347691D01*
X152495136Y-125361811D01*
X152499589Y-125367772D01*
X152505588Y-125378268D01*
X152510167Y-125392093D01*
X152513519Y-125411998D01*
X152515833Y-125440732D01*
X152517301Y-125481045D01*
X152518113Y-125535687D01*
X152518460Y-125607407D01*
X152518534Y-125698956D01*
X152518511Y-125757486D01*
X152518292Y-125836573D01*
X152517683Y-125897516D01*
X152516492Y-125943062D01*
X152514529Y-125975963D01*
X152511603Y-125998968D01*
X152507523Y-126014826D01*
X152502097Y-126026286D01*
X152495136Y-126036100D01*
X152464708Y-126060493D01*
X152429765Y-126063372D01*
X152392784Y-126044282D01*
X152388600Y-126040807D01*
X152380424Y-126032279D01*
X152374364Y-126020728D01*
X152369981Y-126002896D01*
X152366839Y-125975524D01*
X152364502Y-125935354D01*
X152362531Y-125879128D01*
X152360489Y-125803589D01*
X152354845Y-125584458D01*
X152089556Y-125825099D01*
X152015722Y-125891875D01*
X151950542Y-125949991D01*
X151898348Y-125994949D01*
X151857273Y-126027871D01*
X151825455Y-126049879D01*
X151801026Y-126062094D01*
X151782124Y-126065639D01*
X151766883Y-126061636D01*
X151753439Y-126051207D01*
X151739927Y-126035474D01*
X151733682Y-126026991D01*
X151728050Y-126016413D01*
X151723839Y-126002255D01*
X151720887Y-125981803D01*
X151719032Y-125952342D01*
X151718113Y-125911161D01*
X151717968Y-125855544D01*
X151718435Y-125782779D01*
X151719352Y-125690151D01*
X151722667Y-125375199D01*
X151749318Y-125353633D01*
X151775383Y-125337441D01*
X151808241Y-125334670D01*
X151842772Y-125353623D01*
X151847084Y-125357208D01*
X151855216Y-125365737D01*
X151861245Y-125377329D01*
X151865606Y-125395235D01*
X151868734Y-125422706D01*
X151871063Y-125462994D01*
X151873029Y-125519351D01*
X151875067Y-125595029D01*
X151880711Y-125814878D01*
X152061334Y-125651084D01*
X152148072Y-125572451D01*
X152223843Y-125504058D01*
X152285980Y-125448708D01*
X152336078Y-125405338D01*
X152375735Y-125372881D01*
X152406548Y-125350273D01*
X152430114Y-125336448D01*
X152448030Y-125330343D01*
X152461893Y-125330892D01*
G37*
X153259150Y-125337179D02*
X153365157Y-125353494D01*
X153458969Y-125381545D01*
X153537765Y-125420452D01*
X153598719Y-125469334D01*
X153624789Y-125502195D01*
X153654297Y-125551394D01*
X153679568Y-125605252D01*
X153697218Y-125656419D01*
X153703858Y-125697544D01*
X153702298Y-125717259D01*
X153689357Y-125768592D01*
X153666194Y-125825118D01*
X153636302Y-125879035D01*
X153603173Y-125922539D01*
X153592977Y-125932887D01*
X153525892Y-125984662D01*
X153445766Y-126024554D01*
X153359556Y-126048956D01*
X153304592Y-126057068D01*
X153211139Y-126063673D01*
X153121358Y-126061586D01*
X153038869Y-126051340D01*
X152967286Y-126033470D01*
X152910228Y-126008508D01*
X152871311Y-125976988D01*
X152869936Y-125975012D01*
X152862848Y-125949786D01*
X152858609Y-125902535D01*
X152857200Y-125833071D01*
X152858060Y-125770838D01*
X152862780Y-125723456D01*
X152874470Y-125691353D01*
X152896239Y-125671800D01*
X152931198Y-125662070D01*
X152982456Y-125659433D01*
X153053123Y-125661161D01*
X153101743Y-125664173D01*
X153151939Y-125672366D01*
X153184433Y-125686419D01*
X153201892Y-125707654D01*
X153206983Y-125737394D01*
X153206877Y-125741936D01*
X153198175Y-125776730D01*
X153174165Y-125800147D01*
X153132900Y-125813347D01*
X153072431Y-125817489D01*
X153003956Y-125817489D01*
X153003956Y-125855841D01*
X153004006Y-125864976D01*
X153006227Y-125882227D01*
X153015494Y-125892521D01*
X153036875Y-125899459D01*
X153075436Y-125906641D01*
X153080910Y-125907575D01*
X153177860Y-125917478D01*
X153267852Y-125914559D01*
X153348760Y-125899829D01*
X153418459Y-125874299D01*
X153474824Y-125838978D01*
X153515729Y-125794879D01*
X153539051Y-125743012D01*
X153542663Y-125684388D01*
X153537145Y-125655494D01*
X153510461Y-125599604D01*
X153464273Y-125553945D01*
X153399291Y-125519108D01*
X153316229Y-125495690D01*
X153291555Y-125491241D01*
X153202226Y-125480742D01*
X153122419Y-125481971D01*
X153044326Y-125494906D01*
X153009183Y-125501696D01*
X152963745Y-125502713D01*
X152932430Y-125490182D01*
X152912277Y-125463395D01*
X152905893Y-125435148D01*
X152915379Y-125403924D01*
X152924708Y-125390499D01*
X152958943Y-125366967D01*
X153011565Y-125349095D01*
X153080081Y-125337599D01*
X153162000Y-125333192D01*
X153259150Y-125337179D01*
G36*
X153259150Y-125337179D02*
G01*
X153365157Y-125353494D01*
X153458969Y-125381545D01*
X153537765Y-125420452D01*
X153598719Y-125469334D01*
X153624789Y-125502195D01*
X153654297Y-125551394D01*
X153679568Y-125605252D01*
X153697218Y-125656419D01*
X153703858Y-125697544D01*
X153702298Y-125717259D01*
X153689357Y-125768592D01*
X153666194Y-125825118D01*
X153636302Y-125879035D01*
X153603173Y-125922539D01*
X153592977Y-125932887D01*
X153525892Y-125984662D01*
X153445766Y-126024554D01*
X153359556Y-126048956D01*
X153304592Y-126057068D01*
X153211139Y-126063673D01*
X153121358Y-126061586D01*
X153038869Y-126051340D01*
X152967286Y-126033470D01*
X152910228Y-126008508D01*
X152871311Y-125976988D01*
X152869936Y-125975012D01*
X152862848Y-125949786D01*
X152858609Y-125902535D01*
X152857200Y-125833071D01*
X152858060Y-125770838D01*
X152862780Y-125723456D01*
X152874470Y-125691353D01*
X152896239Y-125671800D01*
X152931198Y-125662070D01*
X152982456Y-125659433D01*
X153053123Y-125661161D01*
X153101743Y-125664173D01*
X153151939Y-125672366D01*
X153184433Y-125686419D01*
X153201892Y-125707654D01*
X153206983Y-125737394D01*
X153206877Y-125741936D01*
X153198175Y-125776730D01*
X153174165Y-125800147D01*
X153132900Y-125813347D01*
X153072431Y-125817489D01*
X153003956Y-125817489D01*
X153003956Y-125855841D01*
X153004006Y-125864976D01*
X153006227Y-125882227D01*
X153015494Y-125892521D01*
X153036875Y-125899459D01*
X153075436Y-125906641D01*
X153080910Y-125907575D01*
X153177860Y-125917478D01*
X153267852Y-125914559D01*
X153348760Y-125899829D01*
X153418459Y-125874299D01*
X153474824Y-125838978D01*
X153515729Y-125794879D01*
X153539051Y-125743012D01*
X153542663Y-125684388D01*
X153537145Y-125655494D01*
X153510461Y-125599604D01*
X153464273Y-125553945D01*
X153399291Y-125519108D01*
X153316229Y-125495690D01*
X153291555Y-125491241D01*
X153202226Y-125480742D01*
X153122419Y-125481971D01*
X153044326Y-125494906D01*
X153009183Y-125501696D01*
X152963745Y-125502713D01*
X152932430Y-125490182D01*
X152912277Y-125463395D01*
X152905893Y-125435148D01*
X152915379Y-125403924D01*
X152924708Y-125390499D01*
X152958943Y-125366967D01*
X153011565Y-125349095D01*
X153080081Y-125337599D01*
X153162000Y-125333192D01*
X153259150Y-125337179D01*
G37*
X151309803Y-125361811D02*
X151314752Y-125368495D01*
X151320596Y-125379066D01*
X151325057Y-125393153D01*
X151328321Y-125413478D01*
X151330574Y-125442765D01*
X151332002Y-125483737D01*
X151332792Y-125539117D01*
X151333129Y-125611628D01*
X151333200Y-125703994D01*
X151333171Y-125769911D01*
X151332939Y-125848228D01*
X151332319Y-125908496D01*
X151331126Y-125953393D01*
X151329179Y-125985602D01*
X151326294Y-126007800D01*
X151322288Y-126022669D01*
X151316979Y-126032889D01*
X151310183Y-126041138D01*
X151305668Y-126045795D01*
X151297438Y-126052282D01*
X151286078Y-126057194D01*
X151268810Y-126060749D01*
X151242855Y-126063167D01*
X151205436Y-126064667D01*
X151153773Y-126065467D01*
X151085089Y-126065787D01*
X150996606Y-126065845D01*
X150976931Y-126065838D01*
X150889906Y-126065572D01*
X150822254Y-126064806D01*
X150771299Y-126063392D01*
X150734367Y-126061180D01*
X150708783Y-126058022D01*
X150691871Y-126053769D01*
X150680957Y-126048271D01*
X150670464Y-126038285D01*
X150657203Y-126007168D01*
X150658386Y-125971280D01*
X150674550Y-125939733D01*
X150676739Y-125937457D01*
X150685427Y-125931189D01*
X150698769Y-125926523D01*
X150719752Y-125923227D01*
X150751363Y-125921068D01*
X150796590Y-125919814D01*
X150858420Y-125919231D01*
X150939839Y-125919089D01*
X151186445Y-125919089D01*
X151186445Y-125761045D01*
X151024006Y-125761045D01*
X150988338Y-125760964D01*
X150932568Y-125760167D01*
X150893430Y-125758162D01*
X150866976Y-125754521D01*
X150849259Y-125748812D01*
X150836329Y-125740607D01*
X150832686Y-125737423D01*
X150814278Y-125706448D01*
X150813644Y-125670112D01*
X150831183Y-125636493D01*
X150831245Y-125636424D01*
X150840916Y-125627798D01*
X150854209Y-125621742D01*
X150874917Y-125617811D01*
X150906828Y-125615556D01*
X150953734Y-125614531D01*
X151019424Y-125614289D01*
X151187571Y-125614289D01*
X151184186Y-125549378D01*
X151180800Y-125484467D01*
X150938723Y-125481414D01*
X150913707Y-125481086D01*
X150832087Y-125479606D01*
X150769768Y-125477222D01*
X150724154Y-125473227D01*
X150692652Y-125466913D01*
X150672667Y-125457574D01*
X150661604Y-125444503D01*
X150656869Y-125426992D01*
X150655867Y-125404335D01*
X150655873Y-125401970D01*
X150657027Y-125381939D01*
X150661824Y-125366146D01*
X150672632Y-125354090D01*
X150691817Y-125345267D01*
X150721745Y-125339175D01*
X150764783Y-125335311D01*
X150823299Y-125333174D01*
X150899657Y-125332260D01*
X150996226Y-125332067D01*
X151286406Y-125332067D01*
X151309803Y-125361811D01*
G36*
X151309803Y-125361811D02*
G01*
X151314752Y-125368495D01*
X151320596Y-125379066D01*
X151325057Y-125393153D01*
X151328321Y-125413478D01*
X151330574Y-125442765D01*
X151332002Y-125483737D01*
X151332792Y-125539117D01*
X151333129Y-125611628D01*
X151333200Y-125703994D01*
X151333171Y-125769911D01*
X151332939Y-125848228D01*
X151332319Y-125908496D01*
X151331126Y-125953393D01*
X151329179Y-125985602D01*
X151326294Y-126007800D01*
X151322288Y-126022669D01*
X151316979Y-126032889D01*
X151310183Y-126041138D01*
X151305668Y-126045795D01*
X151297438Y-126052282D01*
X151286078Y-126057194D01*
X151268810Y-126060749D01*
X151242855Y-126063167D01*
X151205436Y-126064667D01*
X151153773Y-126065467D01*
X151085089Y-126065787D01*
X150996606Y-126065845D01*
X150976931Y-126065838D01*
X150889906Y-126065572D01*
X150822254Y-126064806D01*
X150771299Y-126063392D01*
X150734367Y-126061180D01*
X150708783Y-126058022D01*
X150691871Y-126053769D01*
X150680957Y-126048271D01*
X150670464Y-126038285D01*
X150657203Y-126007168D01*
X150658386Y-125971280D01*
X150674550Y-125939733D01*
X150676739Y-125937457D01*
X150685427Y-125931189D01*
X150698769Y-125926523D01*
X150719752Y-125923227D01*
X150751363Y-125921068D01*
X150796590Y-125919814D01*
X150858420Y-125919231D01*
X150939839Y-125919089D01*
X151186445Y-125919089D01*
X151186445Y-125761045D01*
X151024006Y-125761045D01*
X150988338Y-125760964D01*
X150932568Y-125760167D01*
X150893430Y-125758162D01*
X150866976Y-125754521D01*
X150849259Y-125748812D01*
X150836329Y-125740607D01*
X150832686Y-125737423D01*
X150814278Y-125706448D01*
X150813644Y-125670112D01*
X150831183Y-125636493D01*
X150831245Y-125636424D01*
X150840916Y-125627798D01*
X150854209Y-125621742D01*
X150874917Y-125617811D01*
X150906828Y-125615556D01*
X150953734Y-125614531D01*
X151019424Y-125614289D01*
X151187571Y-125614289D01*
X151184186Y-125549378D01*
X151180800Y-125484467D01*
X150938723Y-125481414D01*
X150913707Y-125481086D01*
X150832087Y-125479606D01*
X150769768Y-125477222D01*
X150724154Y-125473227D01*
X150692652Y-125466913D01*
X150672667Y-125457574D01*
X150661604Y-125444503D01*
X150656869Y-125426992D01*
X150655867Y-125404335D01*
X150655873Y-125401970D01*
X150657027Y-125381939D01*
X150661824Y-125366146D01*
X150672632Y-125354090D01*
X150691817Y-125345267D01*
X150721745Y-125339175D01*
X150764783Y-125335311D01*
X150823299Y-125333174D01*
X150899657Y-125332260D01*
X150996226Y-125332067D01*
X151286406Y-125332067D01*
X151309803Y-125361811D01*
G37*
X155986734Y-125332083D02*
X156063831Y-125332275D01*
X156122777Y-125332860D01*
X156166364Y-125334051D01*
X156197383Y-125336064D01*
X156218625Y-125339112D01*
X156232882Y-125343409D01*
X156242945Y-125349172D01*
X156251606Y-125356612D01*
X156253391Y-125358293D01*
X156260635Y-125365832D01*
X156266277Y-125374850D01*
X156270517Y-125387984D01*
X156273556Y-125407872D01*
X156275594Y-125437151D01*
X156276830Y-125478458D01*
X156277465Y-125534431D01*
X156277700Y-125607707D01*
X156277734Y-125700923D01*
X156277697Y-125773713D01*
X156277448Y-125851889D01*
X156276812Y-125912103D01*
X156275615Y-125956982D01*
X156273684Y-125989152D01*
X156270846Y-126011239D01*
X156266927Y-126025870D01*
X156261755Y-126035670D01*
X156255156Y-126043267D01*
X156251822Y-126046444D01*
X156243300Y-126052554D01*
X156231298Y-126057229D01*
X156213087Y-126060659D01*
X156185940Y-126063036D01*
X156147129Y-126064552D01*
X156093924Y-126065398D01*
X156023598Y-126065765D01*
X155933422Y-126065845D01*
X155891314Y-126065833D01*
X155810167Y-126065651D01*
X155747675Y-126065098D01*
X155701109Y-126063982D01*
X155667741Y-126062113D01*
X155644844Y-126059298D01*
X155629688Y-126055346D01*
X155619546Y-126050066D01*
X155611689Y-126043267D01*
X155596963Y-126021667D01*
X155589111Y-125992467D01*
X155594610Y-125968560D01*
X155611689Y-125941667D01*
X155616668Y-125937059D01*
X155626443Y-125930772D01*
X155640559Y-125926146D01*
X155662054Y-125922930D01*
X155693968Y-125920870D01*
X155739342Y-125919712D01*
X155801213Y-125919202D01*
X155882622Y-125919089D01*
X156130978Y-125919089D01*
X156130978Y-125761045D01*
X155969801Y-125761045D01*
X155933983Y-125760899D01*
X155868359Y-125759176D01*
X155821118Y-125754741D01*
X155789383Y-125746637D01*
X155770277Y-125733906D01*
X155760923Y-125715592D01*
X155758445Y-125690738D01*
X155759242Y-125670482D01*
X155764494Y-125648656D01*
X155777288Y-125633304D01*
X155800628Y-125623309D01*
X155837517Y-125617553D01*
X155890959Y-125614919D01*
X155963958Y-125614289D01*
X156132105Y-125614289D01*
X156128719Y-125549378D01*
X156125334Y-125484467D01*
X155877617Y-125481418D01*
X155815026Y-125480539D01*
X155746565Y-125479095D01*
X155695661Y-125477164D01*
X155659408Y-125474514D01*
X155634901Y-125470910D01*
X155619235Y-125466121D01*
X155609506Y-125459913D01*
X155603491Y-125453510D01*
X155590482Y-125421828D01*
X155594043Y-125386142D01*
X155613818Y-125355084D01*
X155617069Y-125352161D01*
X155626049Y-125345810D01*
X155638153Y-125340957D01*
X155656159Y-125337403D01*
X155682847Y-125334946D01*
X155720997Y-125333385D01*
X155773386Y-125332518D01*
X155842794Y-125332146D01*
X155932001Y-125332067D01*
X155986734Y-125332083D01*
G36*
X155986734Y-125332083D02*
G01*
X156063831Y-125332275D01*
X156122777Y-125332860D01*
X156166364Y-125334051D01*
X156197383Y-125336064D01*
X156218625Y-125339112D01*
X156232882Y-125343409D01*
X156242945Y-125349172D01*
X156251606Y-125356612D01*
X156253391Y-125358293D01*
X156260635Y-125365832D01*
X156266277Y-125374850D01*
X156270517Y-125387984D01*
X156273556Y-125407872D01*
X156275594Y-125437151D01*
X156276830Y-125478458D01*
X156277465Y-125534431D01*
X156277700Y-125607707D01*
X156277734Y-125700923D01*
X156277697Y-125773713D01*
X156277448Y-125851889D01*
X156276812Y-125912103D01*
X156275615Y-125956982D01*
X156273684Y-125989152D01*
X156270846Y-126011239D01*
X156266927Y-126025870D01*
X156261755Y-126035670D01*
X156255156Y-126043267D01*
X156251822Y-126046444D01*
X156243300Y-126052554D01*
X156231298Y-126057229D01*
X156213087Y-126060659D01*
X156185940Y-126063036D01*
X156147129Y-126064552D01*
X156093924Y-126065398D01*
X156023598Y-126065765D01*
X155933422Y-126065845D01*
X155891314Y-126065833D01*
X155810167Y-126065651D01*
X155747675Y-126065098D01*
X155701109Y-126063982D01*
X155667741Y-126062113D01*
X155644844Y-126059298D01*
X155629688Y-126055346D01*
X155619546Y-126050066D01*
X155611689Y-126043267D01*
X155596963Y-126021667D01*
X155589111Y-125992467D01*
X155594610Y-125968560D01*
X155611689Y-125941667D01*
X155616668Y-125937059D01*
X155626443Y-125930772D01*
X155640559Y-125926146D01*
X155662054Y-125922930D01*
X155693968Y-125920870D01*
X155739342Y-125919712D01*
X155801213Y-125919202D01*
X155882622Y-125919089D01*
X156130978Y-125919089D01*
X156130978Y-125761045D01*
X155969801Y-125761045D01*
X155933983Y-125760899D01*
X155868359Y-125759176D01*
X155821118Y-125754741D01*
X155789383Y-125746637D01*
X155770277Y-125733906D01*
X155760923Y-125715592D01*
X155758445Y-125690738D01*
X155759242Y-125670482D01*
X155764494Y-125648656D01*
X155777288Y-125633304D01*
X155800628Y-125623309D01*
X155837517Y-125617553D01*
X155890959Y-125614919D01*
X155963958Y-125614289D01*
X156132105Y-125614289D01*
X156128719Y-125549378D01*
X156125334Y-125484467D01*
X155877617Y-125481418D01*
X155815026Y-125480539D01*
X155746565Y-125479095D01*
X155695661Y-125477164D01*
X155659408Y-125474514D01*
X155634901Y-125470910D01*
X155619235Y-125466121D01*
X155609506Y-125459913D01*
X155603491Y-125453510D01*
X155590482Y-125421828D01*
X155594043Y-125386142D01*
X155613818Y-125355084D01*
X155617069Y-125352161D01*
X155626049Y-125345810D01*
X155638153Y-125340957D01*
X155656159Y-125337403D01*
X155682847Y-125334946D01*
X155720997Y-125333385D01*
X155773386Y-125332518D01*
X155842794Y-125332146D01*
X155932001Y-125332067D01*
X155986734Y-125332083D01*
G37*
X147419702Y-125341478D02*
X147437663Y-125359989D01*
X147458263Y-125391071D01*
X147483095Y-125436756D01*
X147513750Y-125499078D01*
X147551820Y-125580071D01*
X147566454Y-125611454D01*
X147596203Y-125674638D01*
X147622297Y-125729244D01*
X147643292Y-125772290D01*
X147657739Y-125800793D01*
X147664191Y-125811770D01*
X147665550Y-125811189D01*
X147675542Y-125797242D01*
X147692833Y-125767704D01*
X147715430Y-125726087D01*
X147741338Y-125675903D01*
X147757311Y-125644414D01*
X147786261Y-125589061D01*
X147808749Y-125550044D01*
X147826965Y-125524566D01*
X147843096Y-125509831D01*
X147859330Y-125503042D01*
X147877857Y-125501400D01*
X147888360Y-125501875D01*
X147904476Y-125506082D01*
X147919790Y-125516946D01*
X147936388Y-125537219D01*
X147956357Y-125569654D01*
X147981783Y-125617004D01*
X148014752Y-125682022D01*
X148024485Y-125701277D01*
X148048943Y-125747946D01*
X148069178Y-125784109D01*
X148083311Y-125806497D01*
X148089460Y-125811845D01*
X148090827Y-125808573D01*
X148100202Y-125787664D01*
X148117062Y-125750725D01*
X148139979Y-125700874D01*
X148167520Y-125641226D01*
X148198255Y-125574898D01*
X148224970Y-125517677D01*
X148254593Y-125455688D01*
X148277664Y-125409949D01*
X148295643Y-125377908D01*
X148309990Y-125357014D01*
X148322166Y-125344718D01*
X148333632Y-125338466D01*
X148343042Y-125335574D01*
X148368147Y-125335425D01*
X148395290Y-125350768D01*
X148396590Y-125351753D01*
X148418674Y-125374388D01*
X148429723Y-125396613D01*
X148429769Y-125397253D01*
X148425228Y-125414915D01*
X148412364Y-125449481D01*
X148392605Y-125497826D01*
X148367381Y-125556825D01*
X148338119Y-125623355D01*
X148306250Y-125694291D01*
X148273201Y-125766507D01*
X148240401Y-125836880D01*
X148209280Y-125902285D01*
X148181265Y-125959597D01*
X148157786Y-126005692D01*
X148140272Y-126037446D01*
X148130151Y-126051733D01*
X148095743Y-126065102D01*
X148054046Y-126058741D01*
X148048681Y-126054044D01*
X148032852Y-126031893D01*
X148010650Y-125995132D01*
X147984233Y-125947415D01*
X147955760Y-125892393D01*
X147875986Y-125733150D01*
X147802799Y-125879742D01*
X147793103Y-125899032D01*
X147766125Y-125951380D01*
X147742096Y-125996170D01*
X147723332Y-126029154D01*
X147712146Y-126046089D01*
X147711000Y-126047332D01*
X147682879Y-126062619D01*
X147647817Y-126064302D01*
X147616776Y-126051733D01*
X147614350Y-126048884D01*
X147602090Y-126028259D01*
X147582352Y-125990708D01*
X147556448Y-125938880D01*
X147525685Y-125875423D01*
X147491375Y-125802985D01*
X147454825Y-125724216D01*
X147434585Y-125680093D01*
X147397812Y-125599365D01*
X147369355Y-125535687D01*
X147348331Y-125486752D01*
X147333854Y-125450257D01*
X147325039Y-125423895D01*
X147321004Y-125405361D01*
X147320862Y-125392352D01*
X147323730Y-125382561D01*
X147338387Y-125361678D01*
X147364990Y-125341377D01*
X147365745Y-125341035D01*
X147385335Y-125334034D01*
X147402790Y-125333504D01*
X147419702Y-125341478D01*
G36*
X147419702Y-125341478D02*
G01*
X147437663Y-125359989D01*
X147458263Y-125391071D01*
X147483095Y-125436756D01*
X147513750Y-125499078D01*
X147551820Y-125580071D01*
X147566454Y-125611454D01*
X147596203Y-125674638D01*
X147622297Y-125729244D01*
X147643292Y-125772290D01*
X147657739Y-125800793D01*
X147664191Y-125811770D01*
X147665550Y-125811189D01*
X147675542Y-125797242D01*
X147692833Y-125767704D01*
X147715430Y-125726087D01*
X147741338Y-125675903D01*
X147757311Y-125644414D01*
X147786261Y-125589061D01*
X147808749Y-125550044D01*
X147826965Y-125524566D01*
X147843096Y-125509831D01*
X147859330Y-125503042D01*
X147877857Y-125501400D01*
X147888360Y-125501875D01*
X147904476Y-125506082D01*
X147919790Y-125516946D01*
X147936388Y-125537219D01*
X147956357Y-125569654D01*
X147981783Y-125617004D01*
X148014752Y-125682022D01*
X148024485Y-125701277D01*
X148048943Y-125747946D01*
X148069178Y-125784109D01*
X148083311Y-125806497D01*
X148089460Y-125811845D01*
X148090827Y-125808573D01*
X148100202Y-125787664D01*
X148117062Y-125750725D01*
X148139979Y-125700874D01*
X148167520Y-125641226D01*
X148198255Y-125574898D01*
X148224970Y-125517677D01*
X148254593Y-125455688D01*
X148277664Y-125409949D01*
X148295643Y-125377908D01*
X148309990Y-125357014D01*
X148322166Y-125344718D01*
X148333632Y-125338466D01*
X148343042Y-125335574D01*
X148368147Y-125335425D01*
X148395290Y-125350768D01*
X148396590Y-125351753D01*
X148418674Y-125374388D01*
X148429723Y-125396613D01*
X148429769Y-125397253D01*
X148425228Y-125414915D01*
X148412364Y-125449481D01*
X148392605Y-125497826D01*
X148367381Y-125556825D01*
X148338119Y-125623355D01*
X148306250Y-125694291D01*
X148273201Y-125766507D01*
X148240401Y-125836880D01*
X148209280Y-125902285D01*
X148181265Y-125959597D01*
X148157786Y-126005692D01*
X148140272Y-126037446D01*
X148130151Y-126051733D01*
X148095743Y-126065102D01*
X148054046Y-126058741D01*
X148048681Y-126054044D01*
X148032852Y-126031893D01*
X148010650Y-125995132D01*
X147984233Y-125947415D01*
X147955760Y-125892393D01*
X147875986Y-125733150D01*
X147802799Y-125879742D01*
X147793103Y-125899032D01*
X147766125Y-125951380D01*
X147742096Y-125996170D01*
X147723332Y-126029154D01*
X147712146Y-126046089D01*
X147711000Y-126047332D01*
X147682879Y-126062619D01*
X147647817Y-126064302D01*
X147616776Y-126051733D01*
X147614350Y-126048884D01*
X147602090Y-126028259D01*
X147582352Y-125990708D01*
X147556448Y-125938880D01*
X147525685Y-125875423D01*
X147491375Y-125802985D01*
X147454825Y-125724216D01*
X147434585Y-125680093D01*
X147397812Y-125599365D01*
X147369355Y-125535687D01*
X147348331Y-125486752D01*
X147333854Y-125450257D01*
X147325039Y-125423895D01*
X147321004Y-125405361D01*
X147320862Y-125392352D01*
X147323730Y-125382561D01*
X147338387Y-125361678D01*
X147364990Y-125341377D01*
X147365745Y-125341035D01*
X147385335Y-125334034D01*
X147402790Y-125333504D01*
X147419702Y-125341478D01*
G37*
X154970853Y-125332936D02*
X155037100Y-125338366D01*
X155092400Y-125347964D01*
X155143283Y-125362825D01*
X155214595Y-125395958D01*
X155265752Y-125438640D01*
X155296575Y-125490705D01*
X155306889Y-125551983D01*
X155305952Y-125583232D01*
X155300160Y-125608029D01*
X155285353Y-125629699D01*
X155257380Y-125657049D01*
X155249402Y-125664378D01*
X155225692Y-125685281D01*
X155203298Y-125702251D01*
X155179265Y-125716205D01*
X155150637Y-125728056D01*
X155114460Y-125738720D01*
X155067780Y-125749111D01*
X155007641Y-125760146D01*
X154931090Y-125772738D01*
X154835171Y-125787804D01*
X154816808Y-125790838D01*
X154754478Y-125804458D01*
X154709260Y-125820192D01*
X154682976Y-125837263D01*
X154677447Y-125854897D01*
X154680068Y-125859168D01*
X154698000Y-125874233D01*
X154726126Y-125890867D01*
X154738926Y-125896857D01*
X154760224Y-125904050D01*
X154786610Y-125908827D01*
X154822454Y-125911646D01*
X154872128Y-125912964D01*
X154940000Y-125913237D01*
X154957785Y-125913164D01*
X155025406Y-125912053D01*
X155090345Y-125909828D01*
X155145970Y-125906762D01*
X155185651Y-125903127D01*
X155221162Y-125899059D01*
X155250415Y-125898276D01*
X155269315Y-125902876D01*
X155284429Y-125913551D01*
X155288085Y-125917144D01*
X155304427Y-125948918D01*
X155303107Y-125984572D01*
X155284150Y-126015190D01*
X155263780Y-126026796D01*
X155227796Y-126039491D01*
X155185372Y-126049541D01*
X155181922Y-126050140D01*
X155139252Y-126055356D01*
X155081866Y-126059730D01*
X155016849Y-126062818D01*
X154951289Y-126064177D01*
X154935057Y-126064218D01*
X154836744Y-126061741D01*
X154756692Y-126053735D01*
X154691513Y-126039203D01*
X154637817Y-126017149D01*
X154592216Y-125986576D01*
X154551323Y-125946486D01*
X154531202Y-125920259D01*
X154519576Y-125890712D01*
X154516667Y-125850995D01*
X154516808Y-125839026D01*
X154520681Y-125806345D01*
X154533065Y-125779819D01*
X154558230Y-125748971D01*
X154579442Y-125726831D01*
X154605838Y-125704285D01*
X154635555Y-125685917D01*
X154671785Y-125670661D01*
X154717717Y-125657449D01*
X154776544Y-125645214D01*
X154851456Y-125632889D01*
X154945645Y-125619406D01*
X154990957Y-125612396D01*
X155058911Y-125597837D01*
X155108047Y-125581337D01*
X155137614Y-125563439D01*
X155146864Y-125544685D01*
X155135048Y-125525615D01*
X155101416Y-125506771D01*
X155098370Y-125505557D01*
X155052011Y-125493479D01*
X154989361Y-125485279D01*
X154915927Y-125481119D01*
X154837217Y-125481161D01*
X154758739Y-125485569D01*
X154686000Y-125494505D01*
X154682073Y-125495154D01*
X154633257Y-125502861D01*
X154601005Y-125506473D01*
X154580008Y-125505876D01*
X154564954Y-125500954D01*
X154550534Y-125491596D01*
X154549364Y-125490725D01*
X154524847Y-125460351D01*
X154520054Y-125424850D01*
X154535860Y-125390269D01*
X154540406Y-125385813D01*
X154570020Y-125370673D01*
X154617002Y-125357550D01*
X154677306Y-125346750D01*
X154746888Y-125338581D01*
X154821703Y-125333351D01*
X154897706Y-125331367D01*
X154970853Y-125332936D01*
G36*
X154970853Y-125332936D02*
G01*
X155037100Y-125338366D01*
X155092400Y-125347964D01*
X155143283Y-125362825D01*
X155214595Y-125395958D01*
X155265752Y-125438640D01*
X155296575Y-125490705D01*
X155306889Y-125551983D01*
X155305952Y-125583232D01*
X155300160Y-125608029D01*
X155285353Y-125629699D01*
X155257380Y-125657049D01*
X155249402Y-125664378D01*
X155225692Y-125685281D01*
X155203298Y-125702251D01*
X155179265Y-125716205D01*
X155150637Y-125728056D01*
X155114460Y-125738720D01*
X155067780Y-125749111D01*
X155007641Y-125760146D01*
X154931090Y-125772738D01*
X154835171Y-125787804D01*
X154816808Y-125790838D01*
X154754478Y-125804458D01*
X154709260Y-125820192D01*
X154682976Y-125837263D01*
X154677447Y-125854897D01*
X154680068Y-125859168D01*
X154698000Y-125874233D01*
X154726126Y-125890867D01*
X154738926Y-125896857D01*
X154760224Y-125904050D01*
X154786610Y-125908827D01*
X154822454Y-125911646D01*
X154872128Y-125912964D01*
X154940000Y-125913237D01*
X154957785Y-125913164D01*
X155025406Y-125912053D01*
X155090345Y-125909828D01*
X155145970Y-125906762D01*
X155185651Y-125903127D01*
X155221162Y-125899059D01*
X155250415Y-125898276D01*
X155269315Y-125902876D01*
X155284429Y-125913551D01*
X155288085Y-125917144D01*
X155304427Y-125948918D01*
X155303107Y-125984572D01*
X155284150Y-126015190D01*
X155263780Y-126026796D01*
X155227796Y-126039491D01*
X155185372Y-126049541D01*
X155181922Y-126050140D01*
X155139252Y-126055356D01*
X155081866Y-126059730D01*
X155016849Y-126062818D01*
X154951289Y-126064177D01*
X154935057Y-126064218D01*
X154836744Y-126061741D01*
X154756692Y-126053735D01*
X154691513Y-126039203D01*
X154637817Y-126017149D01*
X154592216Y-125986576D01*
X154551323Y-125946486D01*
X154531202Y-125920259D01*
X154519576Y-125890712D01*
X154516667Y-125850995D01*
X154516808Y-125839026D01*
X154520681Y-125806345D01*
X154533065Y-125779819D01*
X154558230Y-125748971D01*
X154579442Y-125726831D01*
X154605838Y-125704285D01*
X154635555Y-125685917D01*
X154671785Y-125670661D01*
X154717717Y-125657449D01*
X154776544Y-125645214D01*
X154851456Y-125632889D01*
X154945645Y-125619406D01*
X154990957Y-125612396D01*
X155058911Y-125597837D01*
X155108047Y-125581337D01*
X155137614Y-125563439D01*
X155146864Y-125544685D01*
X155135048Y-125525615D01*
X155101416Y-125506771D01*
X155098370Y-125505557D01*
X155052011Y-125493479D01*
X154989361Y-125485279D01*
X154915927Y-125481119D01*
X154837217Y-125481161D01*
X154758739Y-125485569D01*
X154686000Y-125494505D01*
X154682073Y-125495154D01*
X154633257Y-125502861D01*
X154601005Y-125506473D01*
X154580008Y-125505876D01*
X154564954Y-125500954D01*
X154550534Y-125491596D01*
X154549364Y-125490725D01*
X154524847Y-125460351D01*
X154520054Y-125424850D01*
X154535860Y-125390269D01*
X154540406Y-125385813D01*
X154570020Y-125370673D01*
X154617002Y-125357550D01*
X154677306Y-125346750D01*
X154746888Y-125338581D01*
X154821703Y-125333351D01*
X154897706Y-125331367D01*
X154970853Y-125332936D01*
G37*
X151118711Y-121025033D02*
X151214268Y-121042523D01*
X151378558Y-121087564D01*
X151532589Y-121150656D01*
X151678509Y-121232915D01*
X151818466Y-121335457D01*
X151954608Y-121459399D01*
X151998473Y-121504661D01*
X152110758Y-121636865D01*
X152203972Y-121774832D01*
X152280719Y-121922750D01*
X152343603Y-122084803D01*
X152347420Y-122096391D01*
X152397507Y-122282392D01*
X152430899Y-122478521D01*
X152447584Y-122680568D01*
X152447551Y-122884325D01*
X152430791Y-123085581D01*
X152397292Y-123280128D01*
X152347044Y-123463756D01*
X152303190Y-123581053D01*
X152225348Y-123743951D01*
X152131828Y-123897866D01*
X152024822Y-124039671D01*
X151906519Y-124166239D01*
X151779111Y-124274441D01*
X151701606Y-124327120D01*
X151574725Y-124396750D01*
X151437243Y-124455468D01*
X151295716Y-124500587D01*
X151156702Y-124529422D01*
X151142597Y-124531106D01*
X151099153Y-124534434D01*
X151041723Y-124537275D01*
X150976122Y-124539373D01*
X150908167Y-124540468D01*
X150781378Y-124538140D01*
X150633673Y-124525136D01*
X150495779Y-124500133D01*
X150362014Y-124462318D01*
X150338562Y-124453889D01*
X150290612Y-124434408D01*
X150234140Y-124409473D01*
X150172379Y-124380722D01*
X150108563Y-124349790D01*
X150045926Y-124318315D01*
X149987703Y-124287934D01*
X149937127Y-124260283D01*
X149897433Y-124236999D01*
X149871854Y-124219718D01*
X149863625Y-124210079D01*
X149865076Y-124206984D01*
X149876250Y-124187079D01*
X149897134Y-124151420D01*
X149926265Y-124102459D01*
X149962181Y-124042646D01*
X150003420Y-123974433D01*
X150048517Y-123900271D01*
X150229785Y-123603008D01*
X150276315Y-123647539D01*
X150367723Y-123725865D01*
X150481334Y-123800439D01*
X150599122Y-123854474D01*
X150719559Y-123887290D01*
X150841117Y-123898211D01*
X150882585Y-123896868D01*
X151000080Y-123878612D01*
X151110089Y-123839617D01*
X151211430Y-123780670D01*
X151302921Y-123702557D01*
X151383380Y-123606064D01*
X151451627Y-123491978D01*
X151467908Y-123457724D01*
X151513982Y-123334240D01*
X151549106Y-123195918D01*
X151573197Y-123046561D01*
X151586173Y-122889973D01*
X151587949Y-122729956D01*
X151578443Y-122570314D01*
X151557572Y-122414850D01*
X151525252Y-122267366D01*
X151481399Y-122131667D01*
X151443982Y-122045076D01*
X151379185Y-121931688D01*
X151303772Y-121838070D01*
X151217418Y-121763959D01*
X151119795Y-121709094D01*
X151010577Y-121673212D01*
X150889439Y-121656051D01*
X150820038Y-121654880D01*
X150697168Y-121669141D01*
X150581664Y-121704241D01*
X150474953Y-121759682D01*
X150378464Y-121834964D01*
X150362720Y-121849440D01*
X150332150Y-121875962D01*
X150309809Y-121893138D01*
X150299691Y-121897787D01*
X150297706Y-121895597D01*
X150283241Y-121876721D01*
X150259400Y-121843397D01*
X150228029Y-121798380D01*
X150190974Y-121744425D01*
X150150083Y-121684285D01*
X150107202Y-121620718D01*
X150064178Y-121556476D01*
X150022857Y-121494315D01*
X149985086Y-121436991D01*
X149952712Y-121387257D01*
X149927582Y-121347868D01*
X149911542Y-121321580D01*
X149906439Y-121311147D01*
X149911050Y-121306941D01*
X149930267Y-121301933D01*
X149939838Y-121299386D01*
X149967809Y-121288249D01*
X150009448Y-121269802D01*
X150060995Y-121245725D01*
X150118690Y-121217699D01*
X150129957Y-121212154D01*
X150307687Y-121132889D01*
X150477490Y-121073385D01*
X150641430Y-121033245D01*
X150801571Y-121012071D01*
X150959977Y-121009466D01*
X151118711Y-121025033D01*
G36*
X151118711Y-121025033D02*
G01*
X151214268Y-121042523D01*
X151378558Y-121087564D01*
X151532589Y-121150656D01*
X151678509Y-121232915D01*
X151818466Y-121335457D01*
X151954608Y-121459399D01*
X151998473Y-121504661D01*
X152110758Y-121636865D01*
X152203972Y-121774832D01*
X152280719Y-121922750D01*
X152343603Y-122084803D01*
X152347420Y-122096391D01*
X152397507Y-122282392D01*
X152430899Y-122478521D01*
X152447584Y-122680568D01*
X152447551Y-122884325D01*
X152430791Y-123085581D01*
X152397292Y-123280128D01*
X152347044Y-123463756D01*
X152303190Y-123581053D01*
X152225348Y-123743951D01*
X152131828Y-123897866D01*
X152024822Y-124039671D01*
X151906519Y-124166239D01*
X151779111Y-124274441D01*
X151701606Y-124327120D01*
X151574725Y-124396750D01*
X151437243Y-124455468D01*
X151295716Y-124500587D01*
X151156702Y-124529422D01*
X151142597Y-124531106D01*
X151099153Y-124534434D01*
X151041723Y-124537275D01*
X150976122Y-124539373D01*
X150908167Y-124540468D01*
X150781378Y-124538140D01*
X150633673Y-124525136D01*
X150495779Y-124500133D01*
X150362014Y-124462318D01*
X150338562Y-124453889D01*
X150290612Y-124434408D01*
X150234140Y-124409473D01*
X150172379Y-124380722D01*
X150108563Y-124349790D01*
X150045926Y-124318315D01*
X149987703Y-124287934D01*
X149937127Y-124260283D01*
X149897433Y-124236999D01*
X149871854Y-124219718D01*
X149863625Y-124210079D01*
X149865076Y-124206984D01*
X149876250Y-124187079D01*
X149897134Y-124151420D01*
X149926265Y-124102459D01*
X149962181Y-124042646D01*
X150003420Y-123974433D01*
X150048517Y-123900271D01*
X150229785Y-123603008D01*
X150276315Y-123647539D01*
X150367723Y-123725865D01*
X150481334Y-123800439D01*
X150599122Y-123854474D01*
X150719559Y-123887290D01*
X150841117Y-123898211D01*
X150882585Y-123896868D01*
X151000080Y-123878612D01*
X151110089Y-123839617D01*
X151211430Y-123780670D01*
X151302921Y-123702557D01*
X151383380Y-123606064D01*
X151451627Y-123491978D01*
X151467908Y-123457724D01*
X151513982Y-123334240D01*
X151549106Y-123195918D01*
X151573197Y-123046561D01*
X151586173Y-122889973D01*
X151587949Y-122729956D01*
X151578443Y-122570314D01*
X151557572Y-122414850D01*
X151525252Y-122267366D01*
X151481399Y-122131667D01*
X151443982Y-122045076D01*
X151379185Y-121931688D01*
X151303772Y-121838070D01*
X151217418Y-121763959D01*
X151119795Y-121709094D01*
X151010577Y-121673212D01*
X150889439Y-121656051D01*
X150820038Y-121654880D01*
X150697168Y-121669141D01*
X150581664Y-121704241D01*
X150474953Y-121759682D01*
X150378464Y-121834964D01*
X150362720Y-121849440D01*
X150332150Y-121875962D01*
X150309809Y-121893138D01*
X150299691Y-121897787D01*
X150297706Y-121895597D01*
X150283241Y-121876721D01*
X150259400Y-121843397D01*
X150228029Y-121798380D01*
X150190974Y-121744425D01*
X150150083Y-121684285D01*
X150107202Y-121620718D01*
X150064178Y-121556476D01*
X150022857Y-121494315D01*
X149985086Y-121436991D01*
X149952712Y-121387257D01*
X149927582Y-121347868D01*
X149911542Y-121321580D01*
X149906439Y-121311147D01*
X149911050Y-121306941D01*
X149930267Y-121301933D01*
X149939838Y-121299386D01*
X149967809Y-121288249D01*
X150009448Y-121269802D01*
X150060995Y-121245725D01*
X150118690Y-121217699D01*
X150129957Y-121212154D01*
X150307687Y-121132889D01*
X150477490Y-121073385D01*
X150641430Y-121033245D01*
X150801571Y-121012071D01*
X150959977Y-121009466D01*
X151118711Y-121025033D01*
G37*
X147315994Y-123305711D02*
X147315268Y-123383158D01*
X147306689Y-123534594D01*
X147287833Y-123671283D01*
X147257837Y-123797276D01*
X147215836Y-123916625D01*
X147160969Y-124033381D01*
X147094167Y-124144179D01*
X147003363Y-124257739D01*
X146899708Y-124353211D01*
X146783887Y-124430073D01*
X146656586Y-124487797D01*
X146518489Y-124525858D01*
X146480793Y-124531666D01*
X146401752Y-124537396D01*
X146313629Y-124537583D01*
X146224236Y-124532539D01*
X146141384Y-124522578D01*
X146072887Y-124508012D01*
X146042035Y-124498364D01*
X145964730Y-124468123D01*
X145887679Y-124430617D01*
X145818200Y-124389614D01*
X145763615Y-124348879D01*
X145740916Y-124329505D01*
X145718201Y-124311662D01*
X145706779Y-124304778D01*
X145705537Y-124306424D01*
X145702728Y-124324205D01*
X145700776Y-124357370D01*
X145700045Y-124400733D01*
X145700045Y-124496689D01*
X144841896Y-124496689D01*
X144876161Y-124435974D01*
X144881355Y-124426868D01*
X144889715Y-124412249D01*
X144897288Y-124398173D01*
X144904112Y-124383540D01*
X144910227Y-124367249D01*
X144915673Y-124348198D01*
X144920487Y-124325286D01*
X144924708Y-124297413D01*
X144928377Y-124263478D01*
X144931531Y-124222379D01*
X144934211Y-124173015D01*
X144936454Y-124114286D01*
X144938299Y-124045090D01*
X144939787Y-123964326D01*
X144940955Y-123870894D01*
X144941844Y-123763692D01*
X144942491Y-123641620D01*
X144942936Y-123503576D01*
X144943218Y-123348459D01*
X144943375Y-123175168D01*
X144943448Y-122982603D01*
X144943474Y-122769662D01*
X144943485Y-122633530D01*
X145745200Y-122633530D01*
X145745200Y-123783721D01*
X145815756Y-123830089D01*
X145856417Y-123853791D01*
X145910546Y-123879639D01*
X145959689Y-123897829D01*
X146023165Y-123913551D01*
X146119331Y-123924541D01*
X146203900Y-123916365D01*
X146277219Y-123888805D01*
X146339637Y-123841642D01*
X146391502Y-123774658D01*
X146433160Y-123687633D01*
X146464962Y-123580350D01*
X146467545Y-123568009D01*
X146476000Y-123506772D01*
X146481663Y-123429692D01*
X146484576Y-123342002D01*
X146484783Y-123248934D01*
X146482330Y-123155720D01*
X146477261Y-123067594D01*
X146469619Y-122989788D01*
X146459448Y-122927533D01*
X146458167Y-122921666D01*
X146429126Y-122811121D01*
X146394610Y-122720575D01*
X146353456Y-122647953D01*
X146304499Y-122591181D01*
X146246574Y-122548184D01*
X146214620Y-122532615D01*
X146141784Y-122513722D01*
X146060443Y-122510465D01*
X145975319Y-122522389D01*
X145891133Y-122549040D01*
X145812608Y-122589962D01*
X145745200Y-122633530D01*
X144943485Y-122633530D01*
X144943493Y-122535245D01*
X144943689Y-120850378D01*
X145849017Y-120850378D01*
X145824585Y-120887067D01*
X145818318Y-120896647D01*
X145792208Y-120942981D01*
X145774469Y-120990102D01*
X145762908Y-121045251D01*
X145755331Y-121115667D01*
X145754839Y-121122650D01*
X145753062Y-121160641D01*
X145751444Y-121214576D01*
X145749999Y-121281703D01*
X145748740Y-121359271D01*
X145747680Y-121444528D01*
X145746829Y-121534724D01*
X145746203Y-121627107D01*
X145745812Y-121718925D01*
X145745670Y-121807427D01*
X145745790Y-121889862D01*
X145746183Y-121963479D01*
X145746862Y-122025526D01*
X145747841Y-122073251D01*
X145749132Y-122103904D01*
X145750747Y-122114733D01*
X145758957Y-122110333D01*
X145780647Y-122095362D01*
X145810014Y-122073448D01*
X145858879Y-122039236D01*
X145947125Y-121992714D01*
X146045916Y-121959046D01*
X146158510Y-121937231D01*
X146288164Y-121926265D01*
X146380670Y-121925219D01*
X146502011Y-121935014D01*
X146612099Y-121959174D01*
X146715389Y-121998785D01*
X146816338Y-122054932D01*
X146861503Y-122085883D01*
X146966911Y-122177115D01*
X147058538Y-122286106D01*
X147136332Y-122412726D01*
X147200241Y-122556845D01*
X147250214Y-122718332D01*
X147286198Y-122897059D01*
X147308143Y-123092895D01*
X147313900Y-123248934D01*
X147315994Y-123305711D01*
G36*
X147315994Y-123305711D02*
G01*
X147315268Y-123383158D01*
X147306689Y-123534594D01*
X147287833Y-123671283D01*
X147257837Y-123797276D01*
X147215836Y-123916625D01*
X147160969Y-124033381D01*
X147094167Y-124144179D01*
X147003363Y-124257739D01*
X146899708Y-124353211D01*
X146783887Y-124430073D01*
X146656586Y-124487797D01*
X146518489Y-124525858D01*
X146480793Y-124531666D01*
X146401752Y-124537396D01*
X146313629Y-124537583D01*
X146224236Y-124532539D01*
X146141384Y-124522578D01*
X146072887Y-124508012D01*
X146042035Y-124498364D01*
X145964730Y-124468123D01*
X145887679Y-124430617D01*
X145818200Y-124389614D01*
X145763615Y-124348879D01*
X145740916Y-124329505D01*
X145718201Y-124311662D01*
X145706779Y-124304778D01*
X145705537Y-124306424D01*
X145702728Y-124324205D01*
X145700776Y-124357370D01*
X145700045Y-124400733D01*
X145700045Y-124496689D01*
X144841896Y-124496689D01*
X144876161Y-124435974D01*
X144881355Y-124426868D01*
X144889715Y-124412249D01*
X144897288Y-124398173D01*
X144904112Y-124383540D01*
X144910227Y-124367249D01*
X144915673Y-124348198D01*
X144920487Y-124325286D01*
X144924708Y-124297413D01*
X144928377Y-124263478D01*
X144931531Y-124222379D01*
X144934211Y-124173015D01*
X144936454Y-124114286D01*
X144938299Y-124045090D01*
X144939787Y-123964326D01*
X144940955Y-123870894D01*
X144941844Y-123763692D01*
X144942491Y-123641620D01*
X144942936Y-123503576D01*
X144943218Y-123348459D01*
X144943375Y-123175168D01*
X144943448Y-122982603D01*
X144943474Y-122769662D01*
X144943485Y-122633530D01*
X145745200Y-122633530D01*
X145745200Y-123783721D01*
X145815756Y-123830089D01*
X145856417Y-123853791D01*
X145910546Y-123879639D01*
X145959689Y-123897829D01*
X146023165Y-123913551D01*
X146119331Y-123924541D01*
X146203900Y-123916365D01*
X146277219Y-123888805D01*
X146339637Y-123841642D01*
X146391502Y-123774658D01*
X146433160Y-123687633D01*
X146464962Y-123580350D01*
X146467545Y-123568009D01*
X146476000Y-123506772D01*
X146481663Y-123429692D01*
X146484576Y-123342002D01*
X146484783Y-123248934D01*
X146482330Y-123155720D01*
X146477261Y-123067594D01*
X146469619Y-122989788D01*
X146459448Y-122927533D01*
X146458167Y-122921666D01*
X146429126Y-122811121D01*
X146394610Y-122720575D01*
X146353456Y-122647953D01*
X146304499Y-122591181D01*
X146246574Y-122548184D01*
X146214620Y-122532615D01*
X146141784Y-122513722D01*
X146060443Y-122510465D01*
X145975319Y-122522389D01*
X145891133Y-122549040D01*
X145812608Y-122589962D01*
X145745200Y-122633530D01*
X144943485Y-122633530D01*
X144943493Y-122535245D01*
X144943689Y-120850378D01*
X145849017Y-120850378D01*
X145824585Y-120887067D01*
X145818318Y-120896647D01*
X145792208Y-120942981D01*
X145774469Y-120990102D01*
X145762908Y-121045251D01*
X145755331Y-121115667D01*
X145754839Y-121122650D01*
X145753062Y-121160641D01*
X145751444Y-121214576D01*
X145749999Y-121281703D01*
X145748740Y-121359271D01*
X145747680Y-121444528D01*
X145746829Y-121534724D01*
X145746203Y-121627107D01*
X145745812Y-121718925D01*
X145745670Y-121807427D01*
X145745790Y-121889862D01*
X145746183Y-121963479D01*
X145746862Y-122025526D01*
X145747841Y-122073251D01*
X145749132Y-122103904D01*
X145750747Y-122114733D01*
X145758957Y-122110333D01*
X145780647Y-122095362D01*
X145810014Y-122073448D01*
X145858879Y-122039236D01*
X145947125Y-121992714D01*
X146045916Y-121959046D01*
X146158510Y-121937231D01*
X146288164Y-121926265D01*
X146380670Y-121925219D01*
X146502011Y-121935014D01*
X146612099Y-121959174D01*
X146715389Y-121998785D01*
X146816338Y-122054932D01*
X146861503Y-122085883D01*
X146966911Y-122177115D01*
X147058538Y-122286106D01*
X147136332Y-122412726D01*
X147200241Y-122556845D01*
X147250214Y-122718332D01*
X147286198Y-122897059D01*
X147308143Y-123092895D01*
X147313900Y-123248934D01*
X147315994Y-123305711D01*
G37*
X149857755Y-123706467D02*
X149857261Y-123740363D01*
X149853632Y-123815202D01*
X149846022Y-123877401D01*
X149833688Y-123933984D01*
X149789313Y-124060076D01*
X149726400Y-124174679D01*
X149646238Y-124275568D01*
X149549740Y-124361924D01*
X149437822Y-124432932D01*
X149311397Y-124487776D01*
X149171378Y-124525638D01*
X149135149Y-124531351D01*
X149056155Y-124537313D01*
X148967841Y-124537646D01*
X148878075Y-124532659D01*
X148794722Y-124522666D01*
X148725651Y-124507978D01*
X148639187Y-124477749D01*
X148529286Y-124423057D01*
X148431956Y-124355543D01*
X148369867Y-124304556D01*
X148366605Y-124400622D01*
X148363343Y-124496689D01*
X147940450Y-124496689D01*
X147929543Y-124496686D01*
X147835056Y-124496380D01*
X147748331Y-124495616D01*
X147671837Y-124494451D01*
X147608043Y-124492942D01*
X147559418Y-124491147D01*
X147528433Y-124489121D01*
X147517556Y-124486922D01*
X147517578Y-124486463D01*
X147524614Y-124470910D01*
X147540434Y-124448071D01*
X147544734Y-124442638D01*
X147555777Y-124428606D01*
X147565311Y-124415186D01*
X147573461Y-124400722D01*
X147580352Y-124383556D01*
X147586111Y-124362034D01*
X147590862Y-124334498D01*
X147594731Y-124299292D01*
X147597844Y-124254760D01*
X147600325Y-124199246D01*
X147602300Y-124131093D01*
X147603894Y-124048645D01*
X147605234Y-123950246D01*
X147606444Y-123834239D01*
X147607649Y-123698968D01*
X147608595Y-123587586D01*
X148409378Y-123587586D01*
X148409378Y-123783462D01*
X148454048Y-123839973D01*
X148466785Y-123855212D01*
X148513604Y-123897844D01*
X148574255Y-123933672D01*
X148584897Y-123938850D01*
X148623676Y-123955745D01*
X148658692Y-123965909D01*
X148698722Y-123971325D01*
X148752541Y-123973978D01*
X148770648Y-123974383D01*
X148846011Y-123971540D01*
X148906743Y-123959620D01*
X148958452Y-123937037D01*
X149006746Y-123902211D01*
X149011803Y-123897798D01*
X149060272Y-123842160D01*
X149088459Y-123778333D01*
X149097752Y-123703282D01*
X149090520Y-123631693D01*
X149065796Y-123568645D01*
X149021249Y-123510758D01*
X148966319Y-123463808D01*
X148893894Y-123423961D01*
X148807340Y-123396263D01*
X148704670Y-123380096D01*
X148583894Y-123374842D01*
X148575007Y-123374857D01*
X148519660Y-123375655D01*
X148472736Y-123377488D01*
X148438953Y-123380111D01*
X148423028Y-123383274D01*
X148418943Y-123389741D01*
X148414572Y-123411875D01*
X148411604Y-123450988D01*
X148409914Y-123508939D01*
X148409378Y-123587586D01*
X147608595Y-123587586D01*
X147608975Y-123542778D01*
X147610228Y-123400012D01*
X147611651Y-123254942D01*
X147613176Y-123129027D01*
X147614933Y-123020436D01*
X147617051Y-122927334D01*
X147619660Y-122847891D01*
X147622890Y-122780273D01*
X147626869Y-122722649D01*
X147631728Y-122673185D01*
X147637597Y-122630050D01*
X147644604Y-122591410D01*
X147652880Y-122555434D01*
X147662554Y-122520289D01*
X147673756Y-122484142D01*
X147686616Y-122445161D01*
X147702090Y-122402091D01*
X147744994Y-122309871D01*
X147798735Y-122230099D01*
X147867576Y-122155965D01*
X147945185Y-122092405D01*
X148049761Y-122030725D01*
X148169244Y-121983202D01*
X148304508Y-121949567D01*
X148456426Y-121929552D01*
X148625872Y-121922889D01*
X148683890Y-121923287D01*
X148749398Y-121925335D01*
X148810693Y-121929704D01*
X148872097Y-121937035D01*
X148937932Y-121947969D01*
X149012520Y-121963147D01*
X149100184Y-121983209D01*
X149205245Y-122008797D01*
X149233806Y-122015820D01*
X149309054Y-122033776D01*
X149379388Y-122049820D01*
X149440567Y-122063028D01*
X149488354Y-122072474D01*
X149518511Y-122077231D01*
X149546783Y-122080910D01*
X149573060Y-122086187D01*
X149583059Y-122090942D01*
X149579952Y-122099781D01*
X149569194Y-122127072D01*
X149551864Y-122169906D01*
X149529126Y-122225425D01*
X149502147Y-122290772D01*
X149472090Y-122363089D01*
X149465493Y-122378879D01*
X149426907Y-122469484D01*
X149395768Y-122539217D01*
X149371917Y-122588405D01*
X149355198Y-122617374D01*
X149345454Y-122626452D01*
X149337766Y-122624405D01*
X149311415Y-122614760D01*
X149272982Y-122599190D01*
X149227822Y-122579815D01*
X149133293Y-122541814D01*
X148996480Y-122500780D01*
X148855289Y-122475612D01*
X148817314Y-122471611D01*
X148714059Y-122469447D01*
X148626952Y-122482622D01*
X148555129Y-122511756D01*
X148497731Y-122557466D01*
X148453896Y-122620372D01*
X148422762Y-122701092D01*
X148403470Y-122800245D01*
X148396050Y-122859224D01*
X148557936Y-122852445D01*
X148684495Y-122850813D01*
X148835951Y-122857194D01*
X148984396Y-122871777D01*
X149120578Y-122893882D01*
X149185245Y-122908821D01*
X149317490Y-122951741D01*
X149439762Y-123008340D01*
X149549685Y-123077017D01*
X149644883Y-123156170D01*
X149722980Y-123244196D01*
X149781599Y-123339493D01*
X149805595Y-123391864D01*
X149831232Y-123462590D01*
X149847478Y-123533812D01*
X149855822Y-123612712D01*
X149857690Y-123703282D01*
X149857755Y-123706467D01*
G36*
X149857755Y-123706467D02*
G01*
X149857261Y-123740363D01*
X149853632Y-123815202D01*
X149846022Y-123877401D01*
X149833688Y-123933984D01*
X149789313Y-124060076D01*
X149726400Y-124174679D01*
X149646238Y-124275568D01*
X149549740Y-124361924D01*
X149437822Y-124432932D01*
X149311397Y-124487776D01*
X149171378Y-124525638D01*
X149135149Y-124531351D01*
X149056155Y-124537313D01*
X148967841Y-124537646D01*
X148878075Y-124532659D01*
X148794722Y-124522666D01*
X148725651Y-124507978D01*
X148639187Y-124477749D01*
X148529286Y-124423057D01*
X148431956Y-124355543D01*
X148369867Y-124304556D01*
X148366605Y-124400622D01*
X148363343Y-124496689D01*
X147940450Y-124496689D01*
X147929543Y-124496686D01*
X147835056Y-124496380D01*
X147748331Y-124495616D01*
X147671837Y-124494451D01*
X147608043Y-124492942D01*
X147559418Y-124491147D01*
X147528433Y-124489121D01*
X147517556Y-124486922D01*
X147517578Y-124486463D01*
X147524614Y-124470910D01*
X147540434Y-124448071D01*
X147544734Y-124442638D01*
X147555777Y-124428606D01*
X147565311Y-124415186D01*
X147573461Y-124400722D01*
X147580352Y-124383556D01*
X147586111Y-124362034D01*
X147590862Y-124334498D01*
X147594731Y-124299292D01*
X147597844Y-124254760D01*
X147600325Y-124199246D01*
X147602300Y-124131093D01*
X147603894Y-124048645D01*
X147605234Y-123950246D01*
X147606444Y-123834239D01*
X147607649Y-123698968D01*
X147608595Y-123587586D01*
X148409378Y-123587586D01*
X148409378Y-123783462D01*
X148454048Y-123839973D01*
X148466785Y-123855212D01*
X148513604Y-123897844D01*
X148574255Y-123933672D01*
X148584897Y-123938850D01*
X148623676Y-123955745D01*
X148658692Y-123965909D01*
X148698722Y-123971325D01*
X148752541Y-123973978D01*
X148770648Y-123974383D01*
X148846011Y-123971540D01*
X148906743Y-123959620D01*
X148958452Y-123937037D01*
X149006746Y-123902211D01*
X149011803Y-123897798D01*
X149060272Y-123842160D01*
X149088459Y-123778333D01*
X149097752Y-123703282D01*
X149090520Y-123631693D01*
X149065796Y-123568645D01*
X149021249Y-123510758D01*
X148966319Y-123463808D01*
X148893894Y-123423961D01*
X148807340Y-123396263D01*
X148704670Y-123380096D01*
X148583894Y-123374842D01*
X148575007Y-123374857D01*
X148519660Y-123375655D01*
X148472736Y-123377488D01*
X148438953Y-123380111D01*
X148423028Y-123383274D01*
X148418943Y-123389741D01*
X148414572Y-123411875D01*
X148411604Y-123450988D01*
X148409914Y-123508939D01*
X148409378Y-123587586D01*
X147608595Y-123587586D01*
X147608975Y-123542778D01*
X147610228Y-123400012D01*
X147611651Y-123254942D01*
X147613176Y-123129027D01*
X147614933Y-123020436D01*
X147617051Y-122927334D01*
X147619660Y-122847891D01*
X147622890Y-122780273D01*
X147626869Y-122722649D01*
X147631728Y-122673185D01*
X147637597Y-122630050D01*
X147644604Y-122591410D01*
X147652880Y-122555434D01*
X147662554Y-122520289D01*
X147673756Y-122484142D01*
X147686616Y-122445161D01*
X147702090Y-122402091D01*
X147744994Y-122309871D01*
X147798735Y-122230099D01*
X147867576Y-122155965D01*
X147945185Y-122092405D01*
X148049761Y-122030725D01*
X148169244Y-121983202D01*
X148304508Y-121949567D01*
X148456426Y-121929552D01*
X148625872Y-121922889D01*
X148683890Y-121923287D01*
X148749398Y-121925335D01*
X148810693Y-121929704D01*
X148872097Y-121937035D01*
X148937932Y-121947969D01*
X149012520Y-121963147D01*
X149100184Y-121983209D01*
X149205245Y-122008797D01*
X149233806Y-122015820D01*
X149309054Y-122033776D01*
X149379388Y-122049820D01*
X149440567Y-122063028D01*
X149488354Y-122072474D01*
X149518511Y-122077231D01*
X149546783Y-122080910D01*
X149573060Y-122086187D01*
X149583059Y-122090942D01*
X149579952Y-122099781D01*
X149569194Y-122127072D01*
X149551864Y-122169906D01*
X149529126Y-122225425D01*
X149502147Y-122290772D01*
X149472090Y-122363089D01*
X149465493Y-122378879D01*
X149426907Y-122469484D01*
X149395768Y-122539217D01*
X149371917Y-122588405D01*
X149355198Y-122617374D01*
X149345454Y-122626452D01*
X149337766Y-122624405D01*
X149311415Y-122614760D01*
X149272982Y-122599190D01*
X149227822Y-122579815D01*
X149133293Y-122541814D01*
X148996480Y-122500780D01*
X148855289Y-122475612D01*
X148817314Y-122471611D01*
X148714059Y-122469447D01*
X148626952Y-122482622D01*
X148555129Y-122511756D01*
X148497731Y-122557466D01*
X148453896Y-122620372D01*
X148422762Y-122701092D01*
X148403470Y-122800245D01*
X148396050Y-122859224D01*
X148557936Y-122852445D01*
X148684495Y-122850813D01*
X148835951Y-122857194D01*
X148984396Y-122871777D01*
X149120578Y-122893882D01*
X149185245Y-122908821D01*
X149317490Y-122951741D01*
X149439762Y-123008340D01*
X149549685Y-123077017D01*
X149644883Y-123156170D01*
X149722980Y-123244196D01*
X149781599Y-123339493D01*
X149805595Y-123391864D01*
X149831232Y-123462590D01*
X149847478Y-123533812D01*
X149855822Y-123612712D01*
X149857690Y-123703282D01*
X149857755Y-123706467D01*
G37*
X157405614Y-121174792D02*
X157406059Y-121306011D01*
X157406362Y-121453216D01*
X157406548Y-121617349D01*
X157406642Y-121799352D01*
X157406671Y-122000165D01*
X157406661Y-122220732D01*
X157406636Y-122461992D01*
X157406622Y-122724889D01*
X157406622Y-122767040D01*
X157406646Y-123027668D01*
X157406685Y-123266796D01*
X157406708Y-123485360D01*
X157406687Y-123684295D01*
X157406593Y-123864535D01*
X157406395Y-124027015D01*
X157406063Y-124172670D01*
X157405569Y-124302434D01*
X157404883Y-124417243D01*
X157403976Y-124518030D01*
X157402817Y-124605730D01*
X157401378Y-124681279D01*
X157399629Y-124745611D01*
X157397540Y-124799661D01*
X157395083Y-124844363D01*
X157392227Y-124880652D01*
X157388943Y-124909463D01*
X157385202Y-124931731D01*
X157380974Y-124948390D01*
X157376229Y-124960375D01*
X157370939Y-124968621D01*
X157365073Y-124974062D01*
X157358602Y-124977634D01*
X157351497Y-124980270D01*
X157343728Y-124982906D01*
X157335266Y-124986477D01*
X157330908Y-124988145D01*
X157322395Y-124990111D01*
X157309694Y-124991911D01*
X157291885Y-124993555D01*
X157268049Y-124995047D01*
X157237266Y-124996397D01*
X157198617Y-124997611D01*
X157151182Y-124998697D01*
X157094043Y-124999661D01*
X157026279Y-125000511D01*
X156946971Y-125001253D01*
X156855199Y-125001897D01*
X156750044Y-125002447D01*
X156630587Y-125002913D01*
X156495908Y-125003300D01*
X156345088Y-125003616D01*
X156177206Y-125003869D01*
X155991345Y-125004066D01*
X155786583Y-125004213D01*
X155562002Y-125004318D01*
X155316682Y-125004389D01*
X155049704Y-125004432D01*
X155011321Y-125004437D01*
X154745922Y-125004480D01*
X154502050Y-125004525D01*
X154278783Y-125004548D01*
X154075196Y-125004524D01*
X153890367Y-125004430D01*
X153723373Y-125004243D01*
X153573290Y-125003939D01*
X153439196Y-125003494D01*
X153320166Y-125002885D01*
X153215279Y-125002089D01*
X153123610Y-125001080D01*
X153044237Y-124999837D01*
X152976237Y-124998335D01*
X152918686Y-124996551D01*
X152870662Y-124994461D01*
X152831240Y-124992042D01*
X152799499Y-124989270D01*
X152774514Y-124986121D01*
X152755364Y-124982572D01*
X152741123Y-124978598D01*
X152730871Y-124974178D01*
X152723682Y-124969286D01*
X152718635Y-124963900D01*
X152714805Y-124957996D01*
X152711271Y-124951549D01*
X152707108Y-124944537D01*
X152706025Y-124942687D01*
X152703813Y-124937180D01*
X152701786Y-124928868D01*
X152699938Y-124916809D01*
X152698261Y-124900063D01*
X152696745Y-124877687D01*
X152695383Y-124848740D01*
X152694167Y-124812280D01*
X152693089Y-124767367D01*
X152692140Y-124713057D01*
X152691312Y-124648410D01*
X152690597Y-124572484D01*
X152689987Y-124484338D01*
X152689942Y-124475493D01*
X152981378Y-124475493D01*
X152985260Y-124476765D01*
X153008520Y-124478791D01*
X153050874Y-124480626D01*
X153110132Y-124482227D01*
X153184107Y-124483549D01*
X153270610Y-124484548D01*
X153367452Y-124485180D01*
X153472445Y-124485400D01*
X154170651Y-124485400D01*
X155325090Y-124485400D01*
X155324456Y-124409200D01*
X155325574Y-124367160D01*
X155331304Y-124331334D01*
X155343890Y-124293772D01*
X155365568Y-124245577D01*
X155368789Y-124238897D01*
X155394188Y-124189359D01*
X155420996Y-124141369D01*
X155443917Y-124104466D01*
X155448485Y-124097834D01*
X155470516Y-124066593D01*
X155502693Y-124021654D01*
X155543457Y-123965147D01*
X155591245Y-123899204D01*
X155644498Y-123825957D01*
X155701655Y-123747536D01*
X155761155Y-123666072D01*
X155821437Y-123583698D01*
X155880940Y-123502544D01*
X155938105Y-123424742D01*
X155991370Y-123352423D01*
X156039174Y-123287718D01*
X156079957Y-123232759D01*
X156112158Y-123189676D01*
X156134216Y-123160602D01*
X156144571Y-123147667D01*
X156149044Y-123143351D01*
X156153236Y-123141312D01*
X156156643Y-123143926D01*
X156159325Y-123152986D01*
X156161341Y-123170285D01*
X156162748Y-123197614D01*
X156163605Y-123236765D01*
X156163970Y-123289533D01*
X156163903Y-123357707D01*
X156163460Y-123443082D01*
X156162702Y-123547449D01*
X156161685Y-123672600D01*
X156161308Y-123717300D01*
X156160169Y-123838395D01*
X156158972Y-123939688D01*
X156157636Y-124023262D01*
X156156077Y-124091204D01*
X156154215Y-124145599D01*
X156151966Y-124188532D01*
X156149248Y-124222089D01*
X156145979Y-124248355D01*
X156142078Y-124269416D01*
X156137461Y-124287357D01*
X156129192Y-124313770D01*
X156105583Y-124375772D01*
X156079685Y-124428573D01*
X156054535Y-124465645D01*
X156053339Y-124467075D01*
X156051168Y-124471424D01*
X156053328Y-124475026D01*
X156061644Y-124477951D01*
X156077940Y-124480269D01*
X156104041Y-124482051D01*
X156141771Y-124483367D01*
X156192956Y-124484286D01*
X156259420Y-124484878D01*
X156342987Y-124485215D01*
X156445483Y-124485365D01*
X156568732Y-124485400D01*
X157100296Y-124485400D01*
X157061523Y-124427783D01*
X157055432Y-124418893D01*
X157044976Y-124404069D01*
X157035579Y-124390422D01*
X157027183Y-124376765D01*
X157019733Y-124361911D01*
X157013173Y-124344670D01*
X157007446Y-124323855D01*
X157002495Y-124298280D01*
X156998266Y-124266755D01*
X156994701Y-124228093D01*
X156991744Y-124181107D01*
X156989340Y-124124608D01*
X156987431Y-124057409D01*
X156985962Y-123978322D01*
X156984876Y-123886160D01*
X156984118Y-123779734D01*
X156983630Y-123657857D01*
X156983358Y-123519341D01*
X156983243Y-123362999D01*
X156983231Y-123187642D01*
X156983265Y-122992082D01*
X156983289Y-122775133D01*
X156983280Y-122652513D01*
X156983243Y-122447447D01*
X156983227Y-122263116D01*
X156983288Y-122098334D01*
X156983484Y-121951916D01*
X156983870Y-121822674D01*
X156984505Y-121709422D01*
X156985444Y-121610975D01*
X156986745Y-121526144D01*
X156988464Y-121453744D01*
X156990659Y-121392589D01*
X156993385Y-121341492D01*
X156996701Y-121299267D01*
X157000662Y-121264727D01*
X157005325Y-121236686D01*
X157010747Y-121213958D01*
X157016986Y-121195356D01*
X157024097Y-121179693D01*
X157032138Y-121165784D01*
X157041166Y-121152441D01*
X157051236Y-121138479D01*
X157062407Y-121122711D01*
X157102197Y-121064867D01*
X156042314Y-121064867D01*
X156080311Y-121127966D01*
X156094993Y-121153005D01*
X156109531Y-121180586D01*
X156121627Y-121208700D01*
X156131532Y-121239551D01*
X156139494Y-121275344D01*
X156145761Y-121318283D01*
X156150582Y-121370574D01*
X156154206Y-121434419D01*
X156156881Y-121512025D01*
X156158857Y-121605594D01*
X156160382Y-121717333D01*
X156161704Y-121849445D01*
X156162613Y-121969434D01*
X156163020Y-122086063D01*
X156162767Y-122181531D01*
X156161857Y-122255556D01*
X156160293Y-122307855D01*
X156158079Y-122338149D01*
X156155220Y-122346156D01*
X156152161Y-122342858D01*
X156134006Y-122321408D01*
X156104275Y-122284889D01*
X156064639Y-122235442D01*
X156016771Y-122175207D01*
X155962343Y-122106327D01*
X155903027Y-122030943D01*
X155840495Y-121951196D01*
X155776421Y-121869228D01*
X155712475Y-121787180D01*
X155650331Y-121707194D01*
X155591661Y-121631411D01*
X155538137Y-121561973D01*
X155491430Y-121501021D01*
X155453214Y-121450696D01*
X155425161Y-121413140D01*
X155408943Y-121390495D01*
X155363635Y-121318212D01*
X155323661Y-121238463D01*
X155302130Y-121170188D01*
X155298827Y-121112844D01*
X155304116Y-121064867D01*
X154172356Y-121065117D01*
X154211867Y-121095722D01*
X154221248Y-121103089D01*
X154284183Y-121157438D01*
X154352997Y-121225259D01*
X154429596Y-121308516D01*
X154515888Y-121409178D01*
X154533052Y-121429847D01*
X154573833Y-121479409D01*
X154623588Y-121540326D01*
X154680955Y-121610898D01*
X154744569Y-121689424D01*
X154813069Y-121774204D01*
X154885090Y-121863537D01*
X154959270Y-121955722D01*
X154974517Y-121974702D01*
X155034246Y-122049060D01*
X155108653Y-122141848D01*
X155181131Y-122232388D01*
X155250314Y-122318978D01*
X155314841Y-122399918D01*
X155373347Y-122473506D01*
X155424470Y-122538044D01*
X155466847Y-122591829D01*
X155499115Y-122633162D01*
X155519910Y-122660342D01*
X155527869Y-122671668D01*
X155526111Y-122675771D01*
X155513230Y-122696334D01*
X155488885Y-122732561D01*
X155454247Y-122782824D01*
X155410486Y-122845492D01*
X155358775Y-122918936D01*
X155300284Y-123001527D01*
X155236184Y-123091636D01*
X155167646Y-123187631D01*
X155095843Y-123287885D01*
X155021944Y-123390768D01*
X154947121Y-123494650D01*
X154872545Y-123597901D01*
X154799387Y-123698892D01*
X154728819Y-123795994D01*
X154662011Y-123887577D01*
X154600135Y-123972011D01*
X154544361Y-124047667D01*
X154495862Y-124112916D01*
X154455807Y-124166128D01*
X154425369Y-124205673D01*
X154404944Y-124231026D01*
X154358899Y-124285295D01*
X154308612Y-124341775D01*
X154261815Y-124391669D01*
X154170651Y-124485400D01*
X153472445Y-124485400D01*
X153541356Y-124485349D01*
X153639607Y-124485091D01*
X153729030Y-124484637D01*
X153807333Y-124484010D01*
X153872223Y-124483235D01*
X153921411Y-124482335D01*
X153952604Y-124481334D01*
X153963511Y-124480257D01*
X153962322Y-124477037D01*
X153952176Y-124459452D01*
X153935040Y-124433158D01*
X153926540Y-124420691D01*
X153917329Y-124406622D01*
X153909233Y-124392351D01*
X153902185Y-124376479D01*
X153896117Y-124357609D01*
X153890961Y-124334341D01*
X153886651Y-124305278D01*
X153883119Y-124269021D01*
X153880297Y-124224170D01*
X153878118Y-124169328D01*
X153876514Y-124103097D01*
X153875419Y-124024077D01*
X153874765Y-123930871D01*
X153874484Y-123822079D01*
X153874509Y-123696303D01*
X153874772Y-123552145D01*
X153875206Y-123388207D01*
X153875745Y-123203089D01*
X153876279Y-123024232D01*
X153876805Y-122865374D01*
X153877350Y-122726316D01*
X153877945Y-122605665D01*
X153878619Y-122502028D01*
X153879403Y-122414011D01*
X153880326Y-122340223D01*
X153881419Y-122279269D01*
X153882712Y-122229757D01*
X153884235Y-122190293D01*
X153886019Y-122159484D01*
X153888092Y-122135938D01*
X153890486Y-122118260D01*
X153893230Y-122105059D01*
X153896356Y-122094940D01*
X153899892Y-122086511D01*
X153903791Y-122078375D01*
X153923438Y-122041544D01*
X153942225Y-122011391D01*
X153943272Y-122009908D01*
X153957602Y-121987659D01*
X153963511Y-121974702D01*
X153962504Y-121974249D01*
X153945305Y-121972803D01*
X153908656Y-121971480D01*
X153854962Y-121970316D01*
X153786630Y-121969347D01*
X153706064Y-121968611D01*
X153615670Y-121968142D01*
X153517853Y-121967978D01*
X153072195Y-121967978D01*
X153069120Y-123144845D01*
X153066045Y-124321711D01*
X153039407Y-124380622D01*
X153027485Y-124405183D01*
X153010246Y-124435434D01*
X152997074Y-124452560D01*
X152989076Y-124460591D01*
X152981378Y-124475493D01*
X152689942Y-124475493D01*
X152689474Y-124383029D01*
X152689050Y-124267617D01*
X152688706Y-124137160D01*
X152688434Y-123990716D01*
X152688227Y-123827344D01*
X152688076Y-123646101D01*
X152687972Y-123446048D01*
X152687908Y-123226241D01*
X152687876Y-122985739D01*
X152687867Y-122723602D01*
X152687867Y-120532031D01*
X152726249Y-120493649D01*
X152753355Y-120469911D01*
X152780253Y-120458111D01*
X152816560Y-120455267D01*
X152868489Y-120455267D01*
X152868489Y-120543206D01*
X152870427Y-120593102D01*
X152889199Y-120703523D01*
X152926217Y-120804987D01*
X152979369Y-120896152D01*
X153046546Y-120975673D01*
X153125638Y-121042205D01*
X153214534Y-121094406D01*
X153311125Y-121130930D01*
X153413300Y-121150434D01*
X153518950Y-121151573D01*
X153625964Y-121133005D01*
X153732232Y-121093384D01*
X153829219Y-121035516D01*
X153914293Y-120960684D01*
X153983015Y-120872615D01*
X154033918Y-120773616D01*
X154065535Y-120665993D01*
X154076400Y-120552054D01*
X154076400Y-120455267D01*
X155696753Y-120455267D01*
X155907897Y-120455280D01*
X156112020Y-120455330D01*
X156295686Y-120455430D01*
X156459991Y-120455592D01*
X156606029Y-120455829D01*
X156734894Y-120456153D01*
X156847683Y-120456575D01*
X156945488Y-120457109D01*
X157029404Y-120457767D01*
X157100527Y-120458561D01*
X157159950Y-120459504D01*
X157208768Y-120460608D01*
X157248077Y-120461884D01*
X157278969Y-120463347D01*
X157302541Y-120465007D01*
X157319886Y-120466878D01*
X157332099Y-120468972D01*
X157340275Y-120471300D01*
X157345508Y-120473876D01*
X157351504Y-120477445D01*
X157358279Y-120480978D01*
X157364478Y-120484488D01*
X157370126Y-120488918D01*
X157375247Y-120495208D01*
X157379869Y-120504301D01*
X157384015Y-120517139D01*
X157387713Y-120534662D01*
X157390987Y-120557813D01*
X157393863Y-120587534D01*
X157396367Y-120624765D01*
X157398524Y-120670449D01*
X157400360Y-120725527D01*
X157401900Y-120790941D01*
X157403170Y-120867633D01*
X157404195Y-120956544D01*
X157405001Y-121058617D01*
X157405034Y-121064867D01*
X157405614Y-121174792D01*
G36*
X157405614Y-121174792D02*
G01*
X157406059Y-121306011D01*
X157406362Y-121453216D01*
X157406548Y-121617349D01*
X157406642Y-121799352D01*
X157406671Y-122000165D01*
X157406661Y-122220732D01*
X157406636Y-122461992D01*
X157406622Y-122724889D01*
X157406622Y-122767040D01*
X157406646Y-123027668D01*
X157406685Y-123266796D01*
X157406708Y-123485360D01*
X157406687Y-123684295D01*
X157406593Y-123864535D01*
X157406395Y-124027015D01*
X157406063Y-124172670D01*
X157405569Y-124302434D01*
X157404883Y-124417243D01*
X157403976Y-124518030D01*
X157402817Y-124605730D01*
X157401378Y-124681279D01*
X157399629Y-124745611D01*
X157397540Y-124799661D01*
X157395083Y-124844363D01*
X157392227Y-124880652D01*
X157388943Y-124909463D01*
X157385202Y-124931731D01*
X157380974Y-124948390D01*
X157376229Y-124960375D01*
X157370939Y-124968621D01*
X157365073Y-124974062D01*
X157358602Y-124977634D01*
X157351497Y-124980270D01*
X157343728Y-124982906D01*
X157335266Y-124986477D01*
X157330908Y-124988145D01*
X157322395Y-124990111D01*
X157309694Y-124991911D01*
X157291885Y-124993555D01*
X157268049Y-124995047D01*
X157237266Y-124996397D01*
X157198617Y-124997611D01*
X157151182Y-124998697D01*
X157094043Y-124999661D01*
X157026279Y-125000511D01*
X156946971Y-125001253D01*
X156855199Y-125001897D01*
X156750044Y-125002447D01*
X156630587Y-125002913D01*
X156495908Y-125003300D01*
X156345088Y-125003616D01*
X156177206Y-125003869D01*
X155991345Y-125004066D01*
X155786583Y-125004213D01*
X155562002Y-125004318D01*
X155316682Y-125004389D01*
X155049704Y-125004432D01*
X155011321Y-125004437D01*
X154745922Y-125004480D01*
X154502050Y-125004525D01*
X154278783Y-125004548D01*
X154075196Y-125004524D01*
X153890367Y-125004430D01*
X153723373Y-125004243D01*
X153573290Y-125003939D01*
X153439196Y-125003494D01*
X153320166Y-125002885D01*
X153215279Y-125002089D01*
X153123610Y-125001080D01*
X153044237Y-124999837D01*
X152976237Y-124998335D01*
X152918686Y-124996551D01*
X152870662Y-124994461D01*
X152831240Y-124992042D01*
X152799499Y-124989270D01*
X152774514Y-124986121D01*
X152755364Y-124982572D01*
X152741123Y-124978598D01*
X152730871Y-124974178D01*
X152723682Y-124969286D01*
X152718635Y-124963900D01*
X152714805Y-124957996D01*
X152711271Y-124951549D01*
X152707108Y-124944537D01*
X152706025Y-124942687D01*
X152703813Y-124937180D01*
X152701786Y-124928868D01*
X152699938Y-124916809D01*
X152698261Y-124900063D01*
X152696745Y-124877687D01*
X152695383Y-124848740D01*
X152694167Y-124812280D01*
X152693089Y-124767367D01*
X152692140Y-124713057D01*
X152691312Y-124648410D01*
X152690597Y-124572484D01*
X152689987Y-124484338D01*
X152689942Y-124475493D01*
X152981378Y-124475493D01*
X152985260Y-124476765D01*
X153008520Y-124478791D01*
X153050874Y-124480626D01*
X153110132Y-124482227D01*
X153184107Y-124483549D01*
X153270610Y-124484548D01*
X153367452Y-124485180D01*
X153472445Y-124485400D01*
X154170651Y-124485400D01*
X155325090Y-124485400D01*
X155324456Y-124409200D01*
X155325574Y-124367160D01*
X155331304Y-124331334D01*
X155343890Y-124293772D01*
X155365568Y-124245577D01*
X155368789Y-124238897D01*
X155394188Y-124189359D01*
X155420996Y-124141369D01*
X155443917Y-124104466D01*
X155448485Y-124097834D01*
X155470516Y-124066593D01*
X155502693Y-124021654D01*
X155543457Y-123965147D01*
X155591245Y-123899204D01*
X155644498Y-123825957D01*
X155701655Y-123747536D01*
X155761155Y-123666072D01*
X155821437Y-123583698D01*
X155880940Y-123502544D01*
X155938105Y-123424742D01*
X155991370Y-123352423D01*
X156039174Y-123287718D01*
X156079957Y-123232759D01*
X156112158Y-123189676D01*
X156134216Y-123160602D01*
X156144571Y-123147667D01*
X156149044Y-123143351D01*
X156153236Y-123141312D01*
X156156643Y-123143926D01*
X156159325Y-123152986D01*
X156161341Y-123170285D01*
X156162748Y-123197614D01*
X156163605Y-123236765D01*
X156163970Y-123289533D01*
X156163903Y-123357707D01*
X156163460Y-123443082D01*
X156162702Y-123547449D01*
X156161685Y-123672600D01*
X156161308Y-123717300D01*
X156160169Y-123838395D01*
X156158972Y-123939688D01*
X156157636Y-124023262D01*
X156156077Y-124091204D01*
X156154215Y-124145599D01*
X156151966Y-124188532D01*
X156149248Y-124222089D01*
X156145979Y-124248355D01*
X156142078Y-124269416D01*
X156137461Y-124287357D01*
X156129192Y-124313770D01*
X156105583Y-124375772D01*
X156079685Y-124428573D01*
X156054535Y-124465645D01*
X156053339Y-124467075D01*
X156051168Y-124471424D01*
X156053328Y-124475026D01*
X156061644Y-124477951D01*
X156077940Y-124480269D01*
X156104041Y-124482051D01*
X156141771Y-124483367D01*
X156192956Y-124484286D01*
X156259420Y-124484878D01*
X156342987Y-124485215D01*
X156445483Y-124485365D01*
X156568732Y-124485400D01*
X157100296Y-124485400D01*
X157061523Y-124427783D01*
X157055432Y-124418893D01*
X157044976Y-124404069D01*
X157035579Y-124390422D01*
X157027183Y-124376765D01*
X157019733Y-124361911D01*
X157013173Y-124344670D01*
X157007446Y-124323855D01*
X157002495Y-124298280D01*
X156998266Y-124266755D01*
X156994701Y-124228093D01*
X156991744Y-124181107D01*
X156989340Y-124124608D01*
X156987431Y-124057409D01*
X156985962Y-123978322D01*
X156984876Y-123886160D01*
X156984118Y-123779734D01*
X156983630Y-123657857D01*
X156983358Y-123519341D01*
X156983243Y-123362999D01*
X156983231Y-123187642D01*
X156983265Y-122992082D01*
X156983289Y-122775133D01*
X156983280Y-122652513D01*
X156983243Y-122447447D01*
X156983227Y-122263116D01*
X156983288Y-122098334D01*
X156983484Y-121951916D01*
X156983870Y-121822674D01*
X156984505Y-121709422D01*
X156985444Y-121610975D01*
X156986745Y-121526144D01*
X156988464Y-121453744D01*
X156990659Y-121392589D01*
X156993385Y-121341492D01*
X156996701Y-121299267D01*
X157000662Y-121264727D01*
X157005325Y-121236686D01*
X157010747Y-121213958D01*
X157016986Y-121195356D01*
X157024097Y-121179693D01*
X157032138Y-121165784D01*
X157041166Y-121152441D01*
X157051236Y-121138479D01*
X157062407Y-121122711D01*
X157102197Y-121064867D01*
X156042314Y-121064867D01*
X156080311Y-121127966D01*
X156094993Y-121153005D01*
X156109531Y-121180586D01*
X156121627Y-121208700D01*
X156131532Y-121239551D01*
X156139494Y-121275344D01*
X156145761Y-121318283D01*
X156150582Y-121370574D01*
X156154206Y-121434419D01*
X156156881Y-121512025D01*
X156158857Y-121605594D01*
X156160382Y-121717333D01*
X156161704Y-121849445D01*
X156162613Y-121969434D01*
X156163020Y-122086063D01*
X156162767Y-122181531D01*
X156161857Y-122255556D01*
X156160293Y-122307855D01*
X156158079Y-122338149D01*
X156155220Y-122346156D01*
X156152161Y-122342858D01*
X156134006Y-122321408D01*
X156104275Y-122284889D01*
X156064639Y-122235442D01*
X156016771Y-122175207D01*
X155962343Y-122106327D01*
X155903027Y-122030943D01*
X155840495Y-121951196D01*
X155776421Y-121869228D01*
X155712475Y-121787180D01*
X155650331Y-121707194D01*
X155591661Y-121631411D01*
X155538137Y-121561973D01*
X155491430Y-121501021D01*
X155453214Y-121450696D01*
X155425161Y-121413140D01*
X155408943Y-121390495D01*
X155363635Y-121318212D01*
X155323661Y-121238463D01*
X155302130Y-121170188D01*
X155298827Y-121112844D01*
X155304116Y-121064867D01*
X154172356Y-121065117D01*
X154211867Y-121095722D01*
X154221248Y-121103089D01*
X154284183Y-121157438D01*
X154352997Y-121225259D01*
X154429596Y-121308516D01*
X154515888Y-121409178D01*
X154533052Y-121429847D01*
X154573833Y-121479409D01*
X154623588Y-121540326D01*
X154680955Y-121610898D01*
X154744569Y-121689424D01*
X154813069Y-121774204D01*
X154885090Y-121863537D01*
X154959270Y-121955722D01*
X154974517Y-121974702D01*
X155034246Y-122049060D01*
X155108653Y-122141848D01*
X155181131Y-122232388D01*
X155250314Y-122318978D01*
X155314841Y-122399918D01*
X155373347Y-122473506D01*
X155424470Y-122538044D01*
X155466847Y-122591829D01*
X155499115Y-122633162D01*
X155519910Y-122660342D01*
X155527869Y-122671668D01*
X155526111Y-122675771D01*
X155513230Y-122696334D01*
X155488885Y-122732561D01*
X155454247Y-122782824D01*
X155410486Y-122845492D01*
X155358775Y-122918936D01*
X155300284Y-123001527D01*
X155236184Y-123091636D01*
X155167646Y-123187631D01*
X155095843Y-123287885D01*
X155021944Y-123390768D01*
X154947121Y-123494650D01*
X154872545Y-123597901D01*
X154799387Y-123698892D01*
X154728819Y-123795994D01*
X154662011Y-123887577D01*
X154600135Y-123972011D01*
X154544361Y-124047667D01*
X154495862Y-124112916D01*
X154455807Y-124166128D01*
X154425369Y-124205673D01*
X154404944Y-124231026D01*
X154358899Y-124285295D01*
X154308612Y-124341775D01*
X154261815Y-124391669D01*
X154170651Y-124485400D01*
X153472445Y-124485400D01*
X153541356Y-124485349D01*
X153639607Y-124485091D01*
X153729030Y-124484637D01*
X153807333Y-124484010D01*
X153872223Y-124483235D01*
X153921411Y-124482335D01*
X153952604Y-124481334D01*
X153963511Y-124480257D01*
X153962322Y-124477037D01*
X153952176Y-124459452D01*
X153935040Y-124433158D01*
X153926540Y-124420691D01*
X153917329Y-124406622D01*
X153909233Y-124392351D01*
X153902185Y-124376479D01*
X153896117Y-124357609D01*
X153890961Y-124334341D01*
X153886651Y-124305278D01*
X153883119Y-124269021D01*
X153880297Y-124224170D01*
X153878118Y-124169328D01*
X153876514Y-124103097D01*
X153875419Y-124024077D01*
X153874765Y-123930871D01*
X153874484Y-123822079D01*
X153874509Y-123696303D01*
X153874772Y-123552145D01*
X153875206Y-123388207D01*
X153875745Y-123203089D01*
X153876279Y-123024232D01*
X153876805Y-122865374D01*
X153877350Y-122726316D01*
X153877945Y-122605665D01*
X153878619Y-122502028D01*
X153879403Y-122414011D01*
X153880326Y-122340223D01*
X153881419Y-122279269D01*
X153882712Y-122229757D01*
X153884235Y-122190293D01*
X153886019Y-122159484D01*
X153888092Y-122135938D01*
X153890486Y-122118260D01*
X153893230Y-122105059D01*
X153896356Y-122094940D01*
X153899892Y-122086511D01*
X153903791Y-122078375D01*
X153923438Y-122041544D01*
X153942225Y-122011391D01*
X153943272Y-122009908D01*
X153957602Y-121987659D01*
X153963511Y-121974702D01*
X153962504Y-121974249D01*
X153945305Y-121972803D01*
X153908656Y-121971480D01*
X153854962Y-121970316D01*
X153786630Y-121969347D01*
X153706064Y-121968611D01*
X153615670Y-121968142D01*
X153517853Y-121967978D01*
X153072195Y-121967978D01*
X153069120Y-123144845D01*
X153066045Y-124321711D01*
X153039407Y-124380622D01*
X153027485Y-124405183D01*
X153010246Y-124435434D01*
X152997074Y-124452560D01*
X152989076Y-124460591D01*
X152981378Y-124475493D01*
X152689942Y-124475493D01*
X152689474Y-124383029D01*
X152689050Y-124267617D01*
X152688706Y-124137160D01*
X152688434Y-123990716D01*
X152688227Y-123827344D01*
X152688076Y-123646101D01*
X152687972Y-123446048D01*
X152687908Y-123226241D01*
X152687876Y-122985739D01*
X152687867Y-122723602D01*
X152687867Y-120532031D01*
X152726249Y-120493649D01*
X152753355Y-120469911D01*
X152780253Y-120458111D01*
X152816560Y-120455267D01*
X152868489Y-120455267D01*
X152868489Y-120543206D01*
X152870427Y-120593102D01*
X152889199Y-120703523D01*
X152926217Y-120804987D01*
X152979369Y-120896152D01*
X153046546Y-120975673D01*
X153125638Y-121042205D01*
X153214534Y-121094406D01*
X153311125Y-121130930D01*
X153413300Y-121150434D01*
X153518950Y-121151573D01*
X153625964Y-121133005D01*
X153732232Y-121093384D01*
X153829219Y-121035516D01*
X153914293Y-120960684D01*
X153983015Y-120872615D01*
X154033918Y-120773616D01*
X154065535Y-120665993D01*
X154076400Y-120552054D01*
X154076400Y-120455267D01*
X155696753Y-120455267D01*
X155907897Y-120455280D01*
X156112020Y-120455330D01*
X156295686Y-120455430D01*
X156459991Y-120455592D01*
X156606029Y-120455829D01*
X156734894Y-120456153D01*
X156847683Y-120456575D01*
X156945488Y-120457109D01*
X157029404Y-120457767D01*
X157100527Y-120458561D01*
X157159950Y-120459504D01*
X157208768Y-120460608D01*
X157248077Y-120461884D01*
X157278969Y-120463347D01*
X157302541Y-120465007D01*
X157319886Y-120466878D01*
X157332099Y-120468972D01*
X157340275Y-120471300D01*
X157345508Y-120473876D01*
X157351504Y-120477445D01*
X157358279Y-120480978D01*
X157364478Y-120484488D01*
X157370126Y-120488918D01*
X157375247Y-120495208D01*
X157379869Y-120504301D01*
X157384015Y-120517139D01*
X157387713Y-120534662D01*
X157390987Y-120557813D01*
X157393863Y-120587534D01*
X157396367Y-120624765D01*
X157398524Y-120670449D01*
X157400360Y-120725527D01*
X157401900Y-120790941D01*
X157403170Y-120867633D01*
X157404195Y-120956544D01*
X157405001Y-121058617D01*
X157405034Y-121064867D01*
X157405614Y-121174792D01*
G37*
D13*
%TO.C,2032 BAT*%
X143817000Y-117533000D02*
X143817000Y-112573000D01*
X149807000Y-112573000D02*
X149807000Y-117533000D01*
X149807000Y-117533000D02*
X143817000Y-117533000D01*
X160312000Y-114473000D02*
X160312000Y-115473000D01*
X160812000Y-94973000D02*
X159812000Y-94973000D01*
X160812000Y-114973000D02*
X159812000Y-114973000D01*
X143817000Y-112573000D02*
G75*
G02*
X149807000Y-112573000I2995000J11103816D01*
G01*
%TD*%
M02*
