%TF.GenerationSoftware,KiCad,Pcbnew,9.0.7*%
%TF.CreationDate,2026-01-21T21:34:25-07:00*%
%TF.ProjectId,WolfPCB,576f6c66-5043-4422-9e6b-696361645f70,1*%
%TF.SameCoordinates,Original*%
%TF.FileFunction,Profile,NP*%
%FSLAX46Y46*%
G04 Gerber Fmt 4.6, Leading zero omitted, Abs format (unit mm)*
G04 Created by KiCad (PCBNEW 9.0.7) date 2026-01-21 21:34:25*
%MOMM*%
%LPD*%
G01*
G04 APERTURE LIST*
%TA.AperFunction,Profile*%
%ADD10C,0.100000*%
%TD*%
G04 APERTURE END LIST*
D10*
X174117000Y-82804000D02*
G75*
G02*
X172769227Y-87928752I-5588000J-1270000D01*
G01*
X168900000Y-140637000D02*
G75*
G02*
X165900000Y-143637000I-3000000J0D01*
G01*
X167640000Y-67437000D02*
X170053000Y-72263000D01*
X129032000Y-117533000D02*
X127635000Y-122936000D01*
X125031924Y-100242645D02*
X120396000Y-100242645D01*
X132461000Y-86360000D02*
G75*
G02*
X148462132Y-76412024I16383000J-8509000D01*
G01*
X160755270Y-104033716D02*
X162179000Y-111506000D01*
X132720540Y-128219803D02*
G75*
G02*
X129032000Y-117533000I20822460J13166803D01*
G01*
X160755270Y-104033714D02*
G75*
G02*
X172769227Y-87928753I27839730J-8234286D01*
G01*
X163830000Y-116205000D02*
X168900000Y-124714000D01*
X165900000Y-143637000D02*
X146400000Y-143637000D01*
X132720540Y-128219803D02*
X134731923Y-130755270D01*
X138430000Y-130175000D02*
G75*
G02*
X134731928Y-130755270I-3429000J9779000D01*
G01*
X127635000Y-122936000D02*
G75*
G02*
X122868336Y-122663467I-1524000J15166200D01*
G01*
X122868336Y-122663467D02*
G75*
G02*
X125031924Y-100242645I42739664J7190467D01*
G01*
X168900000Y-124714000D02*
X168900000Y-140637000D01*
X146400000Y-143637000D02*
G75*
G02*
X145383138Y-142396627I0J1037000D01*
G01*
X150217690Y-76269456D02*
G75*
G02*
X148462132Y-76412029I-1755590J10737556D01*
G01*
X120396000Y-100242645D02*
G75*
G02*
X118026149Y-95397469I4635900J5269645D01*
G01*
X140207114Y-123317773D02*
G75*
G02*
X145383138Y-142396627I-17017114J-14858227D01*
G01*
X150217684Y-76269456D02*
X164973000Y-66167000D01*
X140208000Y-123317000D02*
X138430000Y-130175000D01*
X170053000Y-72263000D02*
X174117000Y-82804000D01*
X118026156Y-95397580D02*
X132461000Y-86360000D01*
X162179000Y-111506000D02*
X163830000Y-116205000D01*
X164973000Y-66167000D02*
X167640000Y-67437000D01*
M02*
